<svg xmlns="http://www.w3.org/2000/svg" version="1.1" xmlns:xlink="http://www.w3.org/1999/xlink" xmlns:svgjs="http://svgjs.com/svgjs" width="1000" height="1000"><rect width="1000" height="1000" rx="150" ry="150" fill="#ffffff"></rect><g transform="matrix(6.779661016949152,0,0,6.779661016949152,155.48986238544273,98.68963884095018)"><svg xmlns="http://www.w3.org/2000/svg" version="1.1" xmlns:xlink="http://www.w3.org/1999/xlink" xmlns:svgjs="http://svgjs.com/svgjs" width="102" height="118"><svg width="102" height="118" viewBox="0 0 102 118" fill="none" xmlns="http://www.w3.org/2000/svg">
<path d="M41.7969 0.773438C54.4505 0.773438 65.1445 3.34896 73.8789 8.5C82.7253 13.651 89.444 20.6497 94.0352 29.4961C98.7383 38.2305 101.09 48.1406 101.09 59.2266C101.09 70.3125 98.7383 80.2786 94.0352 89.125C89.444 97.8594 82.7253 104.802 73.8789 109.953C65.1445 115.104 54.4505 117.68 41.7969 117.68C34.0703 117.68 26.9596 117.288 20.4648 116.504C13.9701 115.72 7.30729 114.712 0.476562 113.48V4.97266C7.30729 3.74089 13.9701 2.73307 20.4648 1.94922C26.9596 1.16536 34.0703 0.773438 41.7969 0.773438ZM41.7969 15.0508C37.7656 15.0508 33.4544 15.2188 28.8633 15.5547C24.2721 15.7786 19.849 16.1706 15.5938 16.7305V101.723C19.849 102.171 24.2721 102.562 28.8633 102.898C33.4544 103.234 37.7656 103.402 41.7969 103.402C50.8672 103.402 58.6497 101.499 65.1445 97.6914C71.7513 93.7721 76.7904 88.5091 80.2617 81.9023C83.8451 75.1836 85.6367 67.625 85.6367 59.2266C85.6367 50.8281 83.8451 43.3255 80.2617 36.7188C76.7904 30 71.7513 24.737 65.1445 20.9297C58.6497 17.0104 50.8672 15.0508 41.7969 15.0508Z" fill="black"></path>
</svg></svg></g></svg>