<?xml version="1.0" standalone="no"?>
<!DOCTYPE svg PUBLIC "-//W3C//DTD SVG 20010904//EN"
 "http://www.w3.org/TR/2001/REC-SVG-20010904/DTD/svg10.dtd">
<svg version="1.0" xmlns="http://www.w3.org/2000/svg"
 width="1248.000000pt" height="1248.000000pt" viewBox="0 0 1248.000000 1248.000000"
 preserveAspectRatio="xMidYMid meet">
<metadata>
Created by potrace 1.14, written by Peter Selinger 2001-2017
</metadata>
<g transform="translate(0.000000,1248.000000) scale(0.100000,-0.100000)"
fill="#000000" stroke="none">
<path d="M8047 10484 c-5 -5 -80 -13 -147 -15 -8 0 -37 -5 -65 -10 -27 -5 -65
-11 -83 -14 -124 -20 -355 -103 -464 -167 -27 -15 -48 -24 -48 -20 0 4 -4 2
-8 -3 -4 -6 -36 -28 -72 -49 -73 -45 -222 -153 -290 -212 -87 -76 -266 -261
-347 -359 -46 -55 -89 -107 -96 -115 -7 -8 -35 -44 -62 -80 -27 -36 -53 -69
-58 -75 -10 -13 -78 -106 -97 -135 -8 -12 -34 -48 -57 -81 -24 -32 -43 -63
-43 -68 0 -6 -6 -14 -14 -18 -8 -4 -15 -11 -15 -16 0 -4 -17 -33 -37 -65 -98
-152 -168 -277 -281 -502 -68 -134 -123 -252 -123 -262 0 -10 -4 -18 -10 -18
-5 0 -10 -8 -10 -18 0 -10 -8 -29 -17 -42 -10 -14 -16 -26 -15 -28 3 -2 -28
-84 -103 -277 -5 -11 -9 -24 -10 -30 -2 -5 -12 -34 -24 -62 -11 -29 -18 -53
-15 -53 4 0 2 -6 -3 -12 -6 -7 -27 -65 -47 -128 -21 -63 -41 -124 -46 -135 -9
-20 -63 -198 -61 -202 0 -2 -7 -22 -15 -45 -9 -24 -17 -52 -20 -63 -2 -11 -8
-31 -13 -45 -12 -32 -80 -253 -81 -262 0 -4 -9 -28 -20 -53 -11 -25 -20 -49
-20 -53 -2 -22 -14 -59 -23 -69 -5 -7 -6 -13 -2 -13 4 0 3 -6 -3 -13 -6 -7
-13 -24 -15 -37 -3 -14 -26 -82 -51 -151 -25 -70 -46 -129 -46 -132 0 -2 -8
-22 -17 -43 -9 -22 -17 -44 -19 -50 -2 -10 -20 -55 -91 -219 -14 -33 -44 -96
-66 -140 -23 -44 -41 -82 -42 -85 0 -3 -25 -48 -54 -100 -55 -97 -105 -153
-250 -280 -41 -36 -86 -75 -100 -88 l-25 -23 -28 33 c-44 53 -132 241 -145
308 -2 13 -9 30 -15 37 -6 7 -8 13 -5 13 3 0 1 15 -4 33 -6 17 -12 41 -14 52
-3 11 -7 31 -10 45 -27 123 -53 276 -61 360 -6 67 -21 200 -28 240 -3 14 -7
52 -11 85 -3 33 -8 67 -10 75 -2 8 -6 37 -10 64 -3 27 -13 87 -21 135 -8 47
-17 100 -18 118 -2 17 -6 35 -9 40 -3 4 -8 32 -11 61 -3 30 -8 57 -11 62 -2 4
-7 22 -9 41 -3 19 -10 54 -17 79 -6 25 -12 54 -15 65 -3 18 -13 48 -34 100
-40 102 -107 191 -175 230 -56 33 -75 38 -165 39 -197 2 -389 -124 -598 -394
-23 -30 -56 -72 -73 -92 -17 -20 -31 -40 -31 -45 -1 -4 -6 -12 -13 -18 -21
-17 -295 -409 -295 -421 0 -8 -55 -89 -65 -96 -7 -5 -7 -8 0 -8 7 0 7 -3 0 -8
-5 -4 -16 -18 -24 -32 -125 -218 -161 -279 -178 -298 -7 -7 -13 -16 -13 -20 0
-4 -22 -31 -49 -59 -60 -67 -93 -70 -145 -18 -68 68 -121 233 -152 470 -3 28
-8 59 -11 70 -5 25 -11 204 -18 570 -6 298 -10 393 -20 438 -26 125 -80 272
-141 386 -50 92 -103 174 -116 179 -4 2 -8 10 -8 17 0 7 -4 15 -8 17 -4 2 -23
23 -42 48 -43 55 -262 276 -309 310 -18 14 -43 33 -55 43 -11 10 -33 26 -48
35 -16 9 -28 20 -28 24 0 4 -4 8 -9 8 -5 0 -38 17 -72 38 -35 22 -93 53 -129
70 -63 30 -239 93 -270 97 -8 1 -26 4 -40 8 -70 18 -99 15 -165 -18 -78 -39
-160 -106 -181 -147 -13 -25 -15 -53 -9 -162 10 -194 24 -335 40 -416 2 -13 7
-40 10 -60 3 -20 7 -45 9 -56 5 -27 17 -178 21 -269 4 -80 16 -288 31 -535 3
-58 7 -135 8 -172 0 -38 3 -68 6 -68 3 0 6 -35 7 -78 2 -83 12 -261 27 -497 3
-49 8 -126 11 -170 3 -44 8 -98 11 -120 3 -22 7 -62 8 -90 2 -27 6 -66 9 -85
9 -49 19 -140 21 -172 0 -16 5 -28 9 -28 5 0 6 -4 3 -9 -6 -9 3 -64 30 -181 8
-36 16 -72 18 -80 12 -66 82 -282 131 -405 5 -11 9 -22 10 -25 5 -16 21 -52
46 -108 16 -35 29 -68 29 -73 0 -5 5 -9 12 -9 6 0 9 -3 5 -6 -6 -6 34 -85 115
-233 37 -67 134 -216 167 -256 60 -71 201 -204 256 -240 89 -59 185 -104 260
-121 78 -19 144 -25 211 -22 97 5 151 32 230 116 52 55 71 84 130 204 29 58
98 247 109 297 2 9 16 61 30 116 15 55 29 107 30 115 2 8 4 15 5 15 1 0 3 7 5
15 10 42 16 61 35 125 11 39 23 79 25 90 3 11 9 31 14 45 5 14 21 66 36 115
15 50 30 97 33 105 3 8 6 17 7 20 1 3 4 12 7 20 17 44 21 56 23 67 4 18 74
205 90 240 8 17 15 34 15 37 0 14 125 293 175 391 71 137 135 248 149 257 6 4
8 8 4 8 -8 0 33 66 57 91 8 9 15 21 15 27 0 7 4 12 8 12 4 0 15 12 24 28 51
85 221 262 329 343 48 36 53 37 65 21 7 -9 14 -20 14 -24 0 -3 29 -50 65 -103
104 -154 106 -159 121 -370 2 -38 6 -109 9 -156 5 -122 15 -277 20 -324 3 -22
7 -71 11 -110 7 -82 9 -103 19 -170 4 -27 9 -61 10 -75 2 -14 4 -25 5 -25 1 0
3 -9 5 -20 4 -21 21 -100 31 -145 83 -391 183 -556 382 -630 135 -51 303 -47
450 10 149 57 302 180 417 335 16 22 32 42 36 45 5 5 67 102 103 163 10 18 65
124 122 237 57 113 109 211 114 218 6 6 8 12 5 12 -3 0 2 15 12 33 9 17 16 35
15 40 -1 4 3 7 8 7 6 0 10 9 10 20 0 11 5 20 10 20 6 0 10 6 10 14 0 8 11 36
24 63 29 59 106 243 110 263 1 3 11 30 23 60 28 73 36 94 38 103 2 4 4 9 5 12
1 3 3 8 5 13 1 4 4 14 8 22 3 8 18 51 32 95 15 44 31 89 35 100 5 11 14 38 20
60 6 22 14 47 17 55 3 8 7 20 9 25 4 18 84 260 91 275 3 8 7 20 9 25 7 24 76
222 84 240 5 11 20 52 34 90 13 39 40 109 59 157 19 48 33 89 31 91 -3 2 2 10
11 17 8 7 15 19 15 27 0 8 12 40 26 71 14 31 29 66 34 77 21 48 154 317 193
390 98 183 232 395 340 538 37 49 67 92 67 97 0 5 4 10 9 12 5 2 32 32 61 68
110 139 335 369 470 480 24 19 48 40 54 45 70 63 363 265 383 265 7 0 13 4 13
9 0 5 10 13 23 17 12 4 24 9 27 13 14 17 220 121 254 128 42 8 118 4 132 -7 6
-6 13 -8 16 -5 9 9 64 -50 77 -82 13 -32 11 -194 -3 -268 -3 -16 -9 -46 -12
-65 -14 -80 -19 -107 -29 -150 -3 -14 -7 -36 -10 -50 -2 -14 -12 -52 -21 -85
-8 -33 -17 -68 -20 -77 -2 -10 -7 -28 -10 -40 -3 -13 -7 -30 -9 -38 -2 -8 -4
-15 -5 -15 -1 0 -3 -11 -6 -25 -2 -14 -7 -32 -11 -40 -3 -8 -7 -20 -8 -26 -3
-11 -57 -205 -91 -324 -9 -30 -22 -72 -30 -92 -8 -21 -12 -38 -10 -38 3 0 0
-15 -5 -32 -30 -97 -92 -345 -91 -368 0 -3 -4 -15 -9 -28 -5 -13 -11 -37 -14
-55 -8 -43 -25 -118 -32 -137 -3 -8 -7 -24 -9 -35 -1 -11 -7 -40 -14 -65 -14
-60 -21 -91 -24 -115 -2 -11 -6 -27 -9 -35 -5 -15 -35 -142 -43 -183 -4 -22
-10 -51 -18 -84 -14 -57 -26 -112 -31 -140 -3 -18 -10 -44 -15 -59 -6 -15 -8
-29 -6 -32 3 -2 1 -13 -5 -23 -5 -10 -12 -38 -15 -61 -4 -24 -10 -51 -16 -61
-5 -9 -7 -21 -5 -25 3 -4 0 -18 -5 -32 -6 -14 -12 -35 -14 -47 -1 -13 -11 -58
-20 -100 -10 -43 -19 -81 -20 -85 -1 -5 -2 -9 -3 -10 -2 -2 -4 -12 -6 -23 -3
-15 -82 -363 -111 -490 -3 -11 -7 -31 -10 -45 -9 -43 -74 -319 -79 -332 -2 -7
-7 -31 -10 -53 -3 -22 -10 -56 -15 -75 -5 -19 -12 -53 -15 -75 -4 -22 -9 -49
-12 -60 -9 -26 -12 -43 -17 -80 -3 -16 -10 -55 -16 -85 -6 -30 -13 -66 -16
-80 -2 -14 -9 -47 -14 -75 -6 -27 -12 -61 -15 -75 -3 -14 -7 -36 -10 -50 -2
-14 -7 -38 -10 -55 -11 -65 -16 -91 -21 -109 -4 -10 -8 -35 -10 -55 -1 -20 -6
-47 -9 -61 -8 -37 -17 -82 -21 -110 -2 -14 -6 -38 -8 -55 -5 -29 -11 -64 -21
-115 -22 -111 -33 -421 -21 -569 5 -50 16 -147 21 -172 2 -9 6 -33 9 -54 10
-63 56 -243 73 -285 3 -8 7 -19 8 -25 22 -89 156 -364 251 -517 42 -68 80
-125 83 -128 4 -3 14 -17 23 -31 45 -71 154 -196 265 -307 69 -67 128 -122
133 -122 5 0 15 -6 22 -13 25 -25 144 -100 211 -134 169 -84 334 -124 522
-126 84 -1 190 14 240 33 14 5 25 7 25 4 0 -4 6 -2 12 4 7 6 16 11 20 12 4 1
17 4 27 7 11 3 23 5 26 4 3 -1 13 5 21 14 9 8 20 13 25 10 5 -4 9 -1 9 4 0 6
9 11 20 11 11 0 20 3 20 8 0 4 15 14 33 21 42 19 155 96 201 136 6 6 31 26 56
45 25 19 47 37 50 41 3 3 34 30 70 60 67 55 320 307 320 319 0 3 14 22 31 41
17 19 56 72 87 119 31 47 62 91 69 98 6 6 15 21 18 32 3 11 10 20 14 20 5 0
14 13 21 30 7 16 16 30 20 30 4 0 11 8 14 18 7 19 13 29 77 127 107 164 259
414 259 425 0 5 4 10 8 10 5 0 16 15 25 32 20 40 42 76 141 236 42 68 76 125
76 127 0 2 13 23 28 47 16 24 38 59 48 78 10 19 23 39 27 45 22 28 208 334
218 358 6 15 14 27 18 27 4 0 13 12 20 28 7 15 28 50 47 79 19 28 34 56 34 62
0 6 4 11 9 11 5 0 11 8 15 18 3 9 26 49 51 87 24 39 52 85 61 103 9 17 20 32
24 32 5 0 12 10 16 23 4 12 17 36 30 53 13 17 24 34 24 38 0 4 8 19 19 34 10
15 51 79 90 142 39 63 78 124 86 135 8 10 15 25 15 31 0 7 3 14 8 16 6 3 34
44 129 197 13 20 26 43 30 51 4 8 11 20 16 25 4 6 30 44 56 85 180 279 189
293 214 325 9 13 17 28 17 33 0 6 3 12 8 14 4 2 25 29 46 61 22 32 51 71 65
87 52 60 61 75 83 144 12 39 24 73 27 76 3 3 6 10 7 15 1 6 9 33 18 62 33 106
40 217 15 268 -17 36 -62 63 -114 68 -59 7 -78 -5 -110 -69 -16 -33 -33 -60
-37 -62 -4 -2 -8 -12 -8 -23 0 -10 -4 -19 -8 -19 -5 0 -16 -16 -26 -36 -21
-46 -214 -366 -278 -462 -26 -41 -48 -75 -48 -77 0 -6 -145 -226 -160 -242 -5
-7 -10 -14 -10 -16 0 -9 -113 -172 -121 -175 -5 -2 -9 -7 -9 -12 0 -5 -23 -41
-50 -82 -28 -40 -56 -81 -63 -91 -20 -31 -86 -121 -97 -134 -5 -7 -10 -15 -10
-18 0 -4 -6 -13 -12 -20 -28 -31 -38 -44 -38 -50 0 -4 -20 -33 -45 -65 -25
-32 -45 -61 -45 -64 0 -5 -12 -21 -45 -60 -5 -7 -14 -19 -20 -28 -5 -9 -64
-91 -130 -183 -163 -225 -194 -266 -215 -291 -10 -12 -21 -31 -25 -43 -3 -12
-11 -19 -16 -16 -5 4 -9 0 -9 -7 0 -7 -10 -25 -23 -40 -12 -15 -42 -56 -67
-92 -25 -36 -48 -65 -52 -66 -5 0 -8 -4 -8 -10 0 -5 -16 -31 -36 -57 -19 -27
-41 -55 -47 -64 -7 -8 -16 -23 -22 -32 -5 -9 -77 -111 -160 -228 -175 -249
-144 -203 -322 -470 -78 -118 -146 -219 -151 -225 -5 -5 -15 -21 -22 -34 -7
-14 -18 -30 -24 -36 -6 -7 -29 -35 -51 -63 -22 -28 -43 -51 -47 -51 -5 0 -8
-5 -8 -10 0 -12 -159 -170 -245 -245 -32 -27 -65 -57 -74 -65 -9 -8 -39 -33
-66 -55 -28 -22 -52 -42 -55 -45 -15 -16 -123 -93 -170 -122 -151 -94 -258
-122 -359 -92 -57 16 -58 17 -130 84 -103 96 -116 155 -107 489 10 375 21 516
61 776 3 17 7 48 10 70 3 22 8 51 10 65 5 24 10 56 20 125 4 29 10 65 20 115
9 42 13 66 19 101 3 19 8 44 11 57 13 57 36 170 36 177 0 2 5 19 10 37 5 18
11 44 14 58 3 14 16 70 30 125 14 55 27 109 29 120 1 11 8 40 15 65 7 25 15
53 17 62 9 38 14 60 62 248 73 282 79 303 123 430 22 63 42 123 44 133 4 17
72 228 83 257 7 19 6 17 21 70 6 25 15 52 18 60 3 8 7 20 8 25 1 6 10 31 18
57 9 26 19 57 21 70 3 13 19 68 36 123 17 55 33 107 35 115 2 8 4 16 5 18 2 1
3 5 4 10 2 4 8 27 16 52 15 50 17 56 24 85 3 11 14 52 26 90 11 39 23 79 25
91 3 12 11 40 19 63 9 22 13 41 11 41 -2 0 3 16 11 35 8 19 11 35 8 35 -4 0
-1 6 5 14 7 8 14 27 17 43 3 15 14 59 25 98 20 67 35 123 43 155 2 8 14 53 26
100 12 47 24 93 26 103 2 10 6 27 9 37 3 10 8 29 11 42 11 48 14 64 19 83 14
63 46 203 49 220 4 23 24 130 30 161 2 12 7 39 10 60 4 22 11 66 16 99 13 86
20 133 26 190 2 28 7 70 10 95 9 73 10 480 1 540 -18 130 -81 321 -143 440
-16 30 -31 57 -35 60 -3 3 -16 23 -29 45 -41 67 -149 196 -224 267 -70 66
-218 178 -235 178 -5 0 -11 4 -13 9 -2 7 -101 62 -118 66 -3 1 -18 7 -35 15
-103 45 -196 73 -319 95 -49 9 -131 18 -183 20 -51 2 -98 7 -103 10 -5 3 -12
1 -15 -5 -5 -8 -11 -8 -19 -1 -7 6 -16 8 -19 5z"/>
</g>
</svg>
