<?xml version="1.0" standalone="no"?>
<!DOCTYPE svg PUBLIC "-//W3C//DTD SVG 20010904//EN"
 "http://www.w3.org/TR/2001/REC-SVG-20010904/DTD/svg10.dtd">
<svg version="1.0" xmlns="http://www.w3.org/2000/svg"
 width="1248.000000pt" height="1248.000000pt" viewBox="0 0 1248.000000 1248.000000"
 preserveAspectRatio="xMidYMid meet">
<metadata>
Created by potrace 1.14, written by Peter Selinger 2001-2017
</metadata>
<g transform="translate(0.000000,1248.000000) scale(0.100000,-0.100000)"
fill="#000000" stroke="none">
<path d="M7894 10470 c-514 -65 -981 -356 -1405 -875 -572 -701 -879 -1304
-1210 -2379 -235 -762 -377 -1148 -535 -1456 -108 -208 -131 -239 -294 -382
l-145 -128 -27 32 c-108 131 -212 478 -253 848 -58 521 -141 994 -201 1152
-31 83 -89 174 -135 212 -161 137 -421 78 -650 -146 -172 -168 -512 -642 -709
-988 -142 -248 -213 -340 -264 -340 -106 0 -183 191 -230 565 -9 77 -17 266
-21 530 -7 448 -12 487 -69 659 -64 193 -168 366 -324 542 -263 296 -538 474
-861 555 -136 35 -153 32 -262 -39 -80 -52 -125 -99 -135 -139 -13 -50 20
-439 51 -613 8 -47 26 -276 40 -510 14 -234 36 -618 50 -855 47 -808 87 -1098
197 -1444 101 -319 303 -720 458 -913 170 -210 356 -333 567 -374 200 -38 314
0 420 141 98 129 164 296 253 635 204 770 444 1348 730 1752 77 109 239 281
329 349 l64 49 32 -52 c17 -29 47 -75 67 -103 59 -84 87 -139 97 -191 5 -27
17 -175 26 -329 28 -491 56 -697 136 -1008 91 -350 212 -480 479 -517 150 -20
319 20 460 112 101 65 254 225 342 358 79 119 286 519 397 765 99 219 164 393
286 760 234 704 337 973 505 1320 343 705 809 1261 1365 1630 147 97 354 213
419 235 55 18 157 8 194 -19 53 -38 66 -80 59 -205 -11 -199 -61 -423 -222
-991 -96 -337 -150 -554 -266 -1065 -73 -323 -185 -814 -325 -1420 -136 -592
-186 -834 -309 -1520 -43 -235 -47 -272 -52 -470 -8 -317 19 -516 108 -785
119 -358 375 -768 633 -1013 212 -201 444 -326 687 -368 128 -22 334 -15 439
16 159 46 312 135 505 293 404 332 505 467 1140 1512 941 1550 1498 2431 1635
2590 30 34 47 73 84 183 51 157 67 244 56 314 -11 73 -39 95 -142 113 -29 4
-41 2 -53 -12 -9 -10 -66 -104 -125 -210 -279 -491 -579 -940 -1285 -1918
-520 -720 -682 -950 -917 -1303 -104 -155 -216 -315 -250 -355 -150 -177 -470
-455 -648 -564 -128 -78 -228 -110 -308 -98 -101 15 -199 95 -251 205 -24 51
-26 68 -29 217 -11 465 60 1063 199 1683 57 251 245 986 268 1045 30 77 200
620 286 910 42 143 98 334 125 425 277 939 393 1564 377 2030 -12 373 -135
664 -392 929 -216 222 -442 348 -740 411 -115 24 -402 35 -521 20z"/>
</g>
</svg>
