<svg width="402" height="171" viewBox="0 0 402 171" fill="none" xmlns="http://www.w3.org/2000/svg">
<path d="M78.75 168V137.25H0.500001V119.25L44.5 2.99999H71.25L25 116.5H78.75L79.25 67.75H102.5V116.5H121.75V137.25H102.5V168H78.75ZM200.398 170.5C190.565 170.5 181.898 169.167 174.398 166.5C166.898 163.667 160.565 159.083 155.398 152.75C150.232 146.417 146.232 137.917 143.398 127.25C140.732 116.583 139.398 103.417 139.398 87.75C139.398 71.0833 140.732 57.1667 143.398 46C146.065 34.6667 149.982 25.6667 155.148 19C160.482 12.3333 166.898 7.58332 174.398 4.74999C181.898 1.74999 190.482 0.249999 200.148 0.249999C210.315 0.249999 219.148 1.74999 226.648 4.74999C234.315 7.58332 240.648 12.3333 245.648 19C250.815 25.6667 254.648 34.5833 257.148 45.75C259.815 56.9167 261.148 70.9167 261.148 87.75C261.148 108.583 258.815 125.083 254.148 137.25C249.482 149.25 242.648 157.833 233.648 163C224.648 168 213.565 170.5 200.398 170.5ZM200.398 149.75C206.398 149.75 211.648 148.833 216.148 147C220.648 145 224.398 141.75 227.398 137.25C230.565 132.583 232.898 126.25 234.398 118.25C235.898 110.083 236.648 99.9167 236.648 87.75C236.648 74.4167 235.898 63.5 234.398 55C233.065 46.3333 230.898 39.5833 227.898 34.75C224.898 29.75 221.148 26.25 216.648 24.25C212.148 22.0833 206.732 21 200.398 21C194.398 21 189.065 22.0833 184.398 24.25C179.732 26.25 175.898 29.6667 172.898 34.5C170.065 39.3333 167.898 46.0833 166.398 54.75C164.898 63.4167 164.148 74.5 164.148 88C164.148 100.167 164.898 110.333 166.398 118.5C168.065 126.5 170.398 132.75 173.398 137.25C176.565 141.75 180.398 145 184.898 147C189.398 148.833 194.565 149.75 200.398 149.75ZM358.047 168V137.25H279.797V119.25L323.797 2.99999H350.547L304.297 116.5H358.047L358.547 67.75H381.797V116.5H401.047V137.25H381.797V168H358.047Z" fill="url(#paint0_linear_1071_457)"/>
<defs>
<linearGradient id="paint0_linear_1071_457" x1="-62.8241" y1="66.8889" x2="452.107" y2="57.0173" gradientUnits="userSpaceOnUse">
<stop stop-color="#FF9CF5"/>
<stop offset="1" stop-color="#7EF7FF"/>
</linearGradient>
</defs>
</svg>
