<svg width="85" height="15" viewBox="0 0 85 15" fill="none" xmlns="http://www.w3.org/2000/svg">
<path d="M0.706 14C0.559333 14 0.427333 13.9487 0.31 13.846C0.207333 13.7287 0.156 13.5967 0.156 13.45V2.78C0.156 2.61867 0.207333 2.48667 0.31 2.384C0.427333 2.28133 0.559333 2.23 0.706 2.23H4.578C5.546 2.23 6.448 2.47933 7.284 2.978C8.13467 3.47667 8.81667 4.166 9.33 5.046C9.858 5.926 10.122 6.94533 10.122 8.104C10.122 9.204 9.88733 10.2013 9.418 11.096C8.96333 11.976 8.318 12.68 7.482 13.208C6.66067 13.736 5.69267 14 4.578 14H0.706ZM1.256 3.33V12.9H4.578C5.48733 12.9 6.272 12.6873 6.932 12.262C7.60667 11.822 8.12 11.2427 8.472 10.524C8.83867 9.79067 9.022 8.984 9.022 8.104C9.022 7.18 8.81667 6.35867 8.406 5.64C7.99533 4.92133 7.45267 4.35667 6.778 3.946C6.10333 3.53533 5.37 3.33 4.578 3.33H1.256ZM20.1995 14C20.0529 14 19.9209 13.9487 19.8035 13.846C19.7009 13.7287 19.6495 13.5967 19.6495 13.45V12.46C19.1655 12.9147 18.6375 13.2887 18.0655 13.582C17.4935 13.8607 16.9215 14 16.3495 14C15.8069 14 15.3009 13.89 14.8315 13.67C14.3769 13.45 14.0102 13.076 13.7315 12.548C13.4675 12.0053 13.3355 11.2647 13.3355 10.326V5.926C13.3355 5.76467 13.3869 5.63267 13.4895 5.53C13.6069 5.42733 13.7389 5.376 13.8855 5.376C14.0469 5.376 14.1789 5.42733 14.2815 5.53C14.3842 5.63267 14.4355 5.76467 14.4355 5.926V10.326C14.4355 11.2207 14.6042 11.8733 14.9415 12.284C15.2935 12.6947 15.7629 12.9 16.3495 12.9C16.9509 12.9 17.5449 12.7093 18.1315 12.328C18.7329 11.9467 19.2389 11.4773 19.6495 10.92V5.926C19.6495 5.76467 19.7009 5.63267 19.8035 5.53C19.9209 5.42733 20.0529 5.376 20.1995 5.376C20.3609 5.376 20.4929 5.42733 20.5955 5.53C20.6982 5.63267 20.7495 5.76467 20.7495 5.926V13.45C20.7495 13.5967 20.6982 13.7287 20.5955 13.846C20.4929 13.9487 20.3609 14 20.1995 14ZM29.5511 6.652C29.4044 6.608 29.1478 6.55667 28.7811 6.498C28.4291 6.43933 28.0404 6.41 27.6151 6.41C26.8964 6.41 26.3391 6.53467 25.9431 6.784C25.5471 7.03333 25.3491 7.34133 25.3491 7.708C25.3491 8.03067 25.5104 8.29467 25.8331 8.5C26.1704 8.69067 26.7204 8.82267 27.4831 8.896L28.3631 8.984C29.1111 9.05733 29.6978 9.226 30.1231 9.49C30.5484 9.754 30.8491 10.0693 31.0251 10.436C31.2011 10.788 31.2891 11.162 31.2891 11.558C31.2891 11.954 31.1864 12.35 30.9811 12.746C30.7758 13.1273 30.4164 13.45 29.9031 13.714C29.4044 13.9633 28.6858 14.088 27.7471 14.088C27.2044 14.088 26.6471 14.0367 26.0751 13.934C25.5031 13.8167 24.9604 13.648 24.4471 13.428C24.2271 13.3253 24.1171 13.1493 24.1171 12.9C24.1171 12.768 24.1758 12.6507 24.2931 12.548C24.4104 12.4307 24.5424 12.372 24.6891 12.372C24.7184 12.372 24.7698 12.3867 24.8431 12.416C24.9164 12.4453 25.0484 12.4967 25.2391 12.57C25.5178 12.6727 25.8844 12.768 26.3391 12.856C26.7938 12.944 27.2631 12.988 27.7471 12.988C28.5391 12.988 29.1404 12.856 29.5511 12.592C29.9764 12.3133 30.1891 11.9687 30.1891 11.558C30.1891 11.1767 30.0424 10.854 29.7491 10.59C29.4558 10.3113 28.9644 10.1427 28.2751 10.084L27.3951 9.996C26.5298 9.908 25.8698 9.74667 25.4151 9.512C24.9604 9.26267 24.6524 8.97667 24.4911 8.654C24.3298 8.33133 24.2491 8.00867 24.2491 7.686C24.2491 7.31933 24.3444 6.96 24.5351 6.608C24.7404 6.24133 25.0851 5.93333 25.5691 5.684C26.0678 5.43467 26.7498 5.31 27.6151 5.31C28.1138 5.31 28.5758 5.34667 29.0011 5.42C29.4411 5.47867 29.8298 5.55933 30.1671 5.662C30.2844 5.67667 30.3798 5.74267 30.4531 5.86C30.5264 5.96267 30.5631 6.07267 30.5631 6.19C30.5631 6.35133 30.5044 6.48333 30.3871 6.586C30.2844 6.68867 30.1598 6.74 30.0131 6.74C29.9251 6.74 29.7711 6.71067 29.5511 6.652ZM41.2594 14C41.1127 14 40.9807 13.9487 40.8634 13.846C40.7607 13.7287 40.7094 13.5967 40.7094 13.45V9.05C40.7094 8.14067 40.5334 7.488 40.1814 7.092C39.8441 6.68133 39.3821 6.476 38.7954 6.476C38.1794 6.476 37.5927 6.64467 37.0354 6.982C36.4781 7.30467 35.9647 7.70067 35.4954 8.17V13.45C35.4954 13.5967 35.4441 13.7287 35.3414 13.846C35.2387 13.9487 35.1067 14 34.9454 14C34.7987 14 34.6667 13.9487 34.5494 13.846C34.4467 13.7287 34.3954 13.5967 34.3954 13.45V2.208C34.3954 2.04667 34.4467 1.91467 34.5494 1.812C34.6667 1.70933 34.7987 1.658 34.9454 1.658C35.1067 1.658 35.2387 1.70933 35.3414 1.812C35.4441 1.91467 35.4954 2.04667 35.4954 2.208V6.718C35.9941 6.33667 36.5147 6.02133 37.0574 5.772C37.6001 5.508 38.1794 5.376 38.7954 5.376C39.3527 5.376 39.8587 5.486 40.3134 5.706C40.7681 5.926 41.1274 6.30733 41.3914 6.85C41.6701 7.378 41.8094 8.11133 41.8094 9.05V13.45C41.8094 13.5967 41.7581 13.7287 41.6554 13.846C41.5527 13.9487 41.4207 14 41.2594 14ZM52.1949 14C52.0483 14 51.9163 13.9487 51.7989 13.846C51.6963 13.7287 51.6449 13.5967 51.6449 13.45V9.05C51.6449 8.14067 51.4689 7.488 51.1169 7.092C50.7796 6.68133 50.3176 6.476 49.7309 6.476C49.1149 6.476 48.5283 6.64467 47.9709 6.982C47.4136 7.30467 46.9003 7.70067 46.4309 8.17V13.45C46.4309 13.5967 46.3796 13.7287 46.2769 13.846C46.1743 13.9487 46.0423 14 45.8809 14C45.7343 14 45.6023 13.9487 45.4849 13.846C45.3823 13.7287 45.3309 13.5967 45.3309 13.45V5.926C45.3309 5.76467 45.3823 5.63267 45.4849 5.53C45.6023 5.42733 45.7343 5.376 45.8809 5.376C46.0423 5.376 46.1743 5.42733 46.2769 5.53C46.3796 5.63267 46.4309 5.76467 46.4309 5.926V6.718C46.9296 6.322 47.4503 5.99933 47.9929 5.75C48.5356 5.50067 49.1149 5.376 49.7309 5.376C50.2883 5.376 50.7943 5.486 51.2489 5.706C51.7036 5.926 52.0629 6.30733 52.3269 6.85C52.6056 7.378 52.7449 8.11133 52.7449 9.05V13.45C52.7449 13.5967 52.6936 13.7287 52.5909 13.846C52.4883 13.9487 52.3563 14 52.1949 14ZM56.9265 0.866C57.1758 0.866 57.3885 0.968667 57.5645 1.174C57.7405 1.36467 57.8285 1.62867 57.8285 1.966C57.8285 2.30333 57.7405 2.56 57.5645 2.736C57.3885 2.912 57.1832 3 56.9485 3C56.6845 3 56.4572 2.912 56.2665 2.736C56.0905 2.54533 56.0025 2.28867 56.0025 1.966C56.0025 1.62867 56.0905 1.36467 56.2665 1.174C56.4425 0.968667 56.6625 0.866 56.9265 0.866ZM56.3985 5.926C56.3985 5.76467 56.4498 5.63267 56.5525 5.53C56.6698 5.42733 56.8018 5.376 56.9485 5.376C57.1098 5.376 57.2418 5.42733 57.3445 5.53C57.4472 5.63267 57.4985 5.76467 57.4985 5.926V13.45C57.4985 13.5967 57.4472 13.7287 57.3445 13.846C57.2418 13.9487 57.1098 14 56.9485 14C56.8018 14 56.6698 13.9487 56.5525 13.846C56.4498 13.7287 56.3985 13.5967 56.3985 13.45V5.926ZM61.5118 2.208C61.5118 2.04667 61.5631 1.91467 61.6658 1.812C61.7831 1.70933 61.9151 1.658 62.0618 1.658C62.2231 1.658 62.3551 1.70933 62.4578 1.812C62.5604 1.91467 62.6118 2.04667 62.6118 2.208V13.45C62.6118 13.5967 62.5604 13.7287 62.4578 13.846C62.3551 13.9487 62.2231 14 62.0618 14C61.9151 14 61.7831 13.9487 61.6658 13.846C61.5631 13.7287 61.5118 13.5967 61.5118 13.45V2.208ZM70.057 5.288C70.9517 5.288 71.7217 5.49333 72.367 5.904C73.027 6.3 73.533 6.84267 73.885 7.532C74.2517 8.20667 74.435 8.962 74.435 9.798C74.435 10.6047 74.2517 11.3307 73.885 11.976C73.533 12.6213 73.027 13.1347 72.367 13.516C71.7217 13.8973 70.9517 14.088 70.057 14.088C69.177 14.088 68.407 13.8973 67.747 13.516C67.087 13.1347 66.5737 12.614 66.207 11.954C65.855 11.294 65.679 10.5607 65.679 9.754C65.679 8.93267 65.855 8.18467 66.207 7.51C66.559 6.83533 67.065 6.3 67.725 5.904C68.385 5.49333 69.1624 5.288 70.057 5.288ZM70.057 6.388C69.3824 6.388 68.7957 6.542 68.297 6.85C67.813 7.158 67.439 7.56867 67.175 8.082C66.911 8.58067 66.779 9.138 66.779 9.754C66.779 10.6633 67.0724 11.4333 67.659 12.064C68.2604 12.68 69.0597 12.988 70.057 12.988C71.0544 12.988 71.8464 12.68 72.433 12.064C73.0344 11.448 73.335 10.6927 73.335 9.798C73.335 9.16733 73.203 8.59533 72.939 8.082C72.675 7.56867 72.2937 7.158 71.795 6.85C71.311 6.542 70.7317 6.388 70.057 6.388ZM80.4462 14.088C80.2409 14.088 80.0869 14 79.9842 13.824C79.3975 12.8707 78.8329 11.844 78.2902 10.744C77.7475 9.62933 77.2489 8.53667 76.7942 7.466C76.5889 6.96733 76.4422 6.59333 76.3542 6.344C76.2809 6.09467 76.2442 5.95533 76.2442 5.926C76.2442 5.77933 76.2955 5.65467 76.3982 5.552C76.5155 5.43467 76.6475 5.376 76.7942 5.376C77.0435 5.376 77.2122 5.49333 77.3002 5.728C77.8575 7.18 78.4002 8.456 78.9282 9.556C79.4562 10.656 79.9695 11.6387 80.4682 12.504C80.8202 11.8733 81.1722 11.1693 81.5242 10.392C81.8909 9.6 82.2429 8.80067 82.5802 7.994C82.9175 7.18733 83.2109 6.432 83.4602 5.728C83.5335 5.49333 83.7022 5.376 83.9662 5.376C84.1129 5.376 84.2375 5.43467 84.3402 5.552C84.4575 5.65467 84.5162 5.77933 84.5162 5.926C84.5162 6.058 84.3622 6.51267 84.0542 7.29C83.8342 7.84733 83.5555 8.51467 83.2182 9.292C82.8809 10.0693 82.5215 10.8613 82.1402 11.668C81.7589 12.46 81.3702 13.1787 80.9742 13.824C80.8715 14 80.7175 14.088 80.5122 14.088H80.4462Z" fill="black"/>
</svg>
