<svg width="30" height="30" viewBox="0 0 30 30" fill="none" xmlns="http://www.w3.org/2000/svg">
<path d="M14.9998 4.80005C9.3664 4.80005 4.7998 9.36665 4.7998 15C4.7998 20.6334 9.3664 25.2 14.9998 25.2C20.6332 25.2 25.1998 20.6334 25.1998 15C25.1998 9.36665 20.6332 4.80005 14.9998 4.80005ZM14.9998 5.40005C20.302 5.40005 24.5998 9.69785 24.5998 15C24.5998 20.3022 20.302 24.6 14.9998 24.6C9.6976 24.6 5.3998 20.3022 5.3998 15C5.3998 9.69785 9.6976 5.40005 14.9998 5.40005ZM19.1916 10.984C18.9562 10.9568 18.661 11.0206 18.3303 11.1399C17.7261 11.3577 10.0034 14.637 9.55762 14.8266C9.13462 15.0066 8.73439 15.2026 8.73379 15.4864C8.73379 15.6856 8.8527 15.7977 9.1791 15.9141C9.5187 16.0353 10.3743 16.2952 10.8795 16.4344C11.3661 16.5688 11.9205 16.4512 12.2307 16.2586C12.5595 16.054 16.3575 13.5129 16.6299 13.2903C16.9023 13.0677 17.1185 13.3536 16.8959 13.5762C16.6727 13.7994 14.0663 16.3289 13.7225 16.6793C13.3049 17.1047 13.6016 17.5459 13.8818 17.7223C14.2016 17.9239 16.5011 19.4655 16.8479 19.7133C17.1947 19.9605 17.5458 20.0731 17.8674 20.0731C18.189 20.0731 18.3576 19.6493 18.5178 19.1579C18.7056 18.5825 19.5852 12.8445 19.6932 11.7141C19.7256 11.3721 19.6179 11.144 19.4061 11.0426C19.342 11.0119 19.2701 10.9931 19.1916 10.984Z" fill="#9C9CA2"/>
</svg>
