<svg width="30" height="30" viewBox="0 0 30 30" fill="none" xmlns="http://www.w3.org/2000/svg">
<g clip-path="url(#clip0_1051_76)">
<path d="M20.4549 14.8171C20.4558 14.8171 20.4565 14.8171 20.4575 14.8171C20.5245 14.8171 20.5883 14.7894 20.6337 14.7409C20.6797 14.6917 20.7025 14.6257 20.6965 14.5589C20.4556 11.9457 18.3573 9.87603 15.7067 9.63797C15.6395 9.63276 15.5718 9.6543 15.5219 9.69997C15.472 9.74541 15.4441 9.80954 15.4449 9.87651C15.4866 13.3495 15.9513 14.7686 20.4549 14.8171ZM20.4549 15.297C15.9513 15.3455 15.4869 16.7647 15.4451 20.2377C15.4444 20.3046 15.4722 20.3688 15.5221 20.4142C15.5668 20.4547 15.6251 20.4771 15.6851 20.4771C15.6923 20.4771 15.6997 20.4769 15.7069 20.4762C18.3575 20.2381 20.4558 18.1687 20.6965 15.5552C20.7025 15.4885 20.68 15.4225 20.6337 15.3732C20.5873 15.324 20.5228 15.2996 20.4549 15.297ZM14.6778 9.63915C12.0357 9.88408 9.94407 11.9533 9.70431 14.5594C9.69831 14.6262 9.72087 14.6922 9.76719 14.7414C9.81255 14.7899 9.87663 14.8174 9.94335 14.8174C9.94431 14.8174 9.94527 14.8174 9.94623 14.8174C14.4349 14.7665 14.8984 13.348 14.9406 9.87745C14.9413 9.81048 14.9133 9.74612 14.8633 9.70068C14.8129 9.65524 14.7455 9.633 14.6778 9.63915ZM9.94599 15.2968C9.87135 15.2885 9.81279 15.3235 9.76695 15.3728C9.72087 15.422 9.69807 15.488 9.70407 15.5547C9.94383 18.1609 12.0357 20.2301 14.6778 20.475C14.6853 20.4757 14.6929 20.476 14.7004 20.476C14.7604 20.476 14.8185 20.4537 14.8631 20.4132C14.913 20.3678 14.9411 20.3034 14.9404 20.2365C14.8981 16.7661 14.4349 15.3477 9.94599 15.2968Z" fill="#9C9CA2"/>
</g>
<path d="M25.05 15.0573C25.05 20.4139 20.6447 24.7646 15.2 24.7646C9.75533 24.7646 5.35 20.4139 5.35 15.0573C5.35 9.70074 9.75533 5.35 15.2 5.35C20.6447 5.35 25.05 9.70074 25.05 15.0573Z" stroke="#9C9CA2" stroke-width="0.7"/>
<defs>
<clipPath id="clip0_1051_76">
<rect width="12" height="11.8321" fill="white" transform="translate(9.2002 9.14111)"/>
</clipPath>
</defs>
</svg>
