<svg width="30" height="30" viewBox="0 0 30 30" fill="none" xmlns="http://www.w3.org/2000/svg">
<path d="M15.5 5.5C10.2068 5.5 6 9.70696 6 15.0002C6 20.2934 10.2068 24.5 15.5 24.5C20.7932 24.5 25 20.2934 25 15.0002C25 9.70696 20.7932 5.5 15.5 5.5ZM15.5 6C20.462 6 24.5 10.0376 24.5 15.0002C24.5 19.9628 20.4626 24 15.5 24C10.5374 24 6.5 19.9628 6.5 15.0002C6.5 10.0376 10.5374 6 15.5 6ZM11.3445 12.6012L9.7625 12.6024C9.7625 12.6024 9.52432 12.5889 9.43672 12.6891C9.35932 12.7785 9.43086 12.9247 9.43086 12.9247C9.43086 12.9247 10.6304 15.8322 11.9996 17.2758C12.9674 18.2964 13.938 18.6012 14.832 18.6012H15.3418C15.616 18.6012 15.7379 18.5366 15.7379 18.3938C15.7379 17.9948 15.7352 17.529 16.0766 17.4258C16.484 17.3028 17.0632 18.0114 17.6164 18.3774C17.956 18.6042 18.3535 18.6001 18.3535 18.6001H19.9859C19.9859 18.6001 20.7598 18.5283 20.3926 17.9403C20.3626 17.8923 20.1784 17.6085 19.2922 16.8141C18.364 15.9831 18.4885 16.1177 19.6051 14.6813C20.2861 13.8053 20.554 12.9976 20.4898 12.7618C20.4454 12.598 20.1852 12.6012 19.9086 12.6012C19.6314 12.6012 18.3682 12.6118 18.2422 12.6118C18.1162 12.6118 18.1195 12.6099 18.0277 12.6633C17.9377 12.7155 17.8801 12.8204 17.8801 12.8204C17.8801 12.8204 17.5995 13.7778 17.2473 14.3544C16.5057 15.57 16.0894 15.4782 15.9676 15.402C15.6856 15.2262 15.7379 14.6943 15.7379 14.3169C15.7379 13.1385 15.8726 12.8034 15.3266 12.6762C15.146 12.6342 15.0128 12.6066 14.5496 12.6024C13.955 12.5964 13.6104 12.6255 13.3566 12.7395C13.167 12.8295 13.0176 12.9871 13.107 12.9985C13.2174 13.0129 13.4696 13.1052 13.6016 13.2786C13.7726 13.503 13.7574 14.0063 13.7574 14.0063C13.7574 14.0063 13.8653 15.1794 13.5371 15.3516C13.3121 15.4698 13.0042 15.4419 12.343 14.3391C12.0046 13.7739 11.7383 12.8872 11.7383 12.8872C11.7383 12.8872 11.6894 12.7679 11.6012 12.7055C11.4938 12.6293 11.3445 12.6012 11.3445 12.6012Z" fill="#9C9CA2"/>
</svg>
