<svg width="103" height="30" viewBox="0 0 103 30" fill="none" xmlns="http://www.w3.org/2000/svg">
<mask id="mask0_1053_111" style="mask-type:alpha" maskUnits="userSpaceOnUse" x="0" y="0" width="103" height="30">
<rect width="103" height="30" fill="#D9D9D9"/>
</mask>
<g mask="url(#mask0_1053_111)">
<path d="M39.8 12C39.8333 11.9667 39.8667 11.95 39.9 11.95C40.2667 11.95 40.45 12.0833 40.45 12.35C40.4833 12.5833 40.4 12.95 40.2 13.45C40.1667 13.5833 40.1333 13.6833 40.1 13.75C39.8667 13.8833 38.1 16.6667 34.8 22.1C34.1 23.2667 33.5333 24.1667 33.1 24.8C32.7 25.4333 32.1 26.0667 31.3 26.7C30.5333 27.3667 29.7667 27.7 29 27.7C27.6667 27.7 26.4833 27 25.45 25.6C24.4167 24.2 23.9 22.7333 23.9 21.2C23.9 20.6 23.9333 20.15 24 19.85C24.2 18.6833 24.4333 17.45 24.7 16.15C25 14.85 25.3333 13.4 25.7 11.8C26.0667 10.1667 26.35 8.93333 26.55 8.1C26.5833 7.96667 26.7667 7.31667 27.1 6.15C27.4333 4.98333 27.6 4.13333 27.6 3.6C27.6 3.23333 27.4 3.05 27 3.05C26.9 3.05 26.7833 3.08333 26.65 3.15C23.95 4.48333 21.9167 6.91667 20.55 10.45C20.4167 10.7833 20.1833 11.4333 19.85 12.4C19.55 13.3667 19.2667 14.1833 19 14.85C18.7333 15.4833 18.4 16.1833 18 16.95C17.6333 17.7167 17.2167 18.3 16.75 18.7C16.2833 19.1 15.7833 19.3 15.25 19.3C14.8167 19.3 14.45 19.1833 14.15 18.95C13.8833 18.7167 13.6833 18.35 13.55 17.85C13.4167 17.35 13.3167 16.9 13.25 16.5C13.1833 16.1 13.1333 15.5667 13.1 14.9C13.0667 14.2 13.0333 13.7167 13 13.45C12.9667 13.3167 12.8667 13.1333 12.7 12.9C12.5333 12.6667 12.4333 12.5 12.4 12.4C10.9333 13.3667 9.71667 15.7667 8.75 19.6C8.38333 20.9333 7.88333 21.6 7.25 21.6C6.28333 21.6 5.45 21.0833 4.75 20.05C4.08333 18.9833 3.61667 17.8833 3.35 16.75C3.25 16.3833 3.15 15.6667 3.05 14.6C2.98333 13.5 2.91667 12.3833 2.85 11.25C2.78333 10.1167 2.75 9.53333 2.75 9.5C2.75 9.26667 2.7 8.86667 2.6 8.3C2.53333 7.7 2.5 7.23333 2.5 6.9C2.5 6.76667 2.61667 6.61667 2.85 6.45C3.08333 6.28333 3.26667 6.2 3.4 6.2C4.43333 6.36667 5.36667 6.88333 6.2 7.75C7.03333 8.58333 7.51667 9.5 7.65 10.5L7.7 13.1C7.83333 14.4667 8.08333 15.1667 8.45 15.2C8.61667 15.2 8.91667 14.8 9.35 14C9.81667 13.2 10.3667 12.4 11 11.6C11.6333 10.7667 12.2667 10.35 12.9 10.35C13.5 10.35 13.9 10.8167 14.1 11.75C14.3 12.6833 14.4667 13.7833 14.6 15.05C14.7667 16.2833 15.05 17.1333 15.45 17.6C15.5167 17.5333 15.6667 17.4 15.9 17.2C16.1333 17 16.3 16.85 16.4 16.75C16.7667 16.1833 17.1167 15.4667 17.45 14.6C17.7833 13.7 18.1167 12.7 18.45 11.6C18.7833 10.5 19.0667 9.66667 19.3 9.1C20.0333 7.16667 21.1 5.38333 22.5 3.75C23.9333 2.08333 25.5333 1.25 27.3 1.25C28.6 1.25 29.6833 1.68333 30.55 2.55C31.4167 3.41667 31.85 4.46667 31.85 5.7C31.85 7.23333 31.4333 9.35 30.6 12.05C30.5333 12.3167 30.3333 13 30 14.1C29.6667 15.1667 29.4333 15.8833 29.3 16.25C29.2 16.6167 29.0333 17.2667 28.8 18.2C28.5667 19.1333 28.4 19.8833 28.3 20.45C28.2 20.9833 28.1 21.65 28 22.45C27.9333 23.25 27.9 24 27.9 24.7C27.9 25.0667 28 25.35 28.2 25.55C28.4 25.7833 28.6333 25.9 28.9 25.9C29.3 25.9 29.8667 25.5833 30.6 24.95C31.3333 24.35 31.8667 23.7833 32.2 23.25C32.8333 22.25 34.05 20.5167 35.85 18.05C37.65 15.5833 38.9667 13.5667 39.8 12ZM38.3285 11.05C38.4285 10.0167 38.5285 9.11667 38.6285 8.35C38.7618 7.55 38.9952 6.58333 39.3285 5.45C39.6952 4.31667 40.1118 3.4 40.5785 2.7C41.0452 1.96667 41.6952 1.35 42.5285 0.849999C43.3618 0.349999 44.3118 0.149999 45.3785 0.249999C48.7452 0.583332 50.5618 3.95 50.8285 10.35C50.8618 11.3833 50.8118 12.4667 50.6785 13.6C50.5452 14.7333 50.2785 15.9 49.8785 17.1C49.5118 18.3 48.9118 19.3167 48.0785 20.15C47.2785 20.9833 46.3118 21.4667 45.1785 21.6C43.6785 21.7333 42.3452 21.1667 41.1785 19.9C40.0118 18.6333 39.1952 17.1667 38.7285 15.5C38.2618 13.8333 38.1285 12.35 38.3285 11.05ZM41.1285 10.15C41.0952 10.45 41.0785 10.6667 41.0785 10.8C41.0785 10.9333 41.0785 11.3333 41.0785 12C41.1118 12.6667 41.1285 13.2167 41.1285 13.65C41.1618 14.05 41.2118 14.6 41.2785 15.3C41.3452 15.9667 41.4452 16.5333 41.5785 17C41.7452 17.4333 41.9285 17.9 42.1285 18.4C42.3618 18.8667 42.6452 19.2333 42.9785 19.5C43.3452 19.7667 43.7618 19.9333 44.2285 20C47.2618 20.4 49.1285 17.4667 49.8285 11.2C49.8618 10.4 49.8285 9.51667 49.7285 8.55C49.6618 7.55 49.4952 6.5 49.2285 5.4C48.9618 4.26667 48.5118 3.35 47.8785 2.65C47.2452 1.91667 46.4785 1.56667 45.5785 1.6C44.8785 1.63333 44.2452 1.86667 43.6785 2.3C43.1452 2.73333 42.7285 3.23333 42.4285 3.8C42.1618 4.36667 41.9285 5.08333 41.7285 5.95C41.5285 6.81667 41.3952 7.55 41.3285 8.15C41.2618 8.71667 41.1952 9.38333 41.1285 10.15ZM88.3309 14.3C88.3642 14.2667 88.5642 14.05 88.9309 13.65C89.2975 13.2167 89.4975 12.95 89.5309 12.85C89.5642 12.9833 89.6309 13.05 89.7309 13.05C89.7642 13.05 89.8142 13.05 89.8809 13.05C89.9475 13.0167 89.9975 13 90.0309 13C90.1309 13 90.2309 13.0833 90.3309 13.25C90.2975 13.2833 90.1475 13.5167 89.8809 13.95C89.6142 14.35 89.3309 14.7833 89.0309 15.25C88.7642 15.6833 88.6142 15.9333 88.5809 16C87.9142 17.0667 86.9809 18.6333 85.7809 20.7C84.6142 22.7333 83.7642 24.1833 83.2309 25.05C83.1309 25.2167 82.9642 25.4833 82.7309 25.85C82.4975 26.25 82.3309 26.5167 82.2309 26.65C82.1642 26.7833 82.0309 27 81.8309 27.3C81.6642 27.6 81.5309 27.8 81.4309 27.9C81.3642 28 81.2475 28.15 81.0809 28.35C80.9475 28.55 80.8142 28.6833 80.6809 28.75C80.5809 28.8167 80.4475 28.9 80.2809 29C80.1475 29.1333 79.9975 29.2167 79.8309 29.25C79.6975 29.2833 79.5309 29.3167 79.3309 29.35C79.1642 29.3833 78.9809 29.4 78.7809 29.4C77.9475 29.4 77.2142 29.25 76.5809 28.95C75.9809 28.6833 75.4975 28.25 75.1309 27.65C74.7642 27.0833 74.4475 26.5 74.1809 25.9C73.9475 25.3333 73.7809 24.6167 73.6809 23.75C73.6142 22.8833 73.5642 22.15 73.5309 21.55C73.4975 20.95 73.4809 20.2167 73.4809 19.35C73.4809 18.4833 73.5309 17.5167 73.6309 16.45C73.7642 15.35 73.8809 14.5167 73.9809 13.95C74.0809 13.35 74.2642 12.3333 74.5309 10.9C74.8309 9.43333 75.0142 8.55 75.0809 8.25C75.1142 8.15 75.1975 7.8 75.3309 7.2C75.4975 6.56667 75.5809 6.06667 75.5809 5.7C75.5809 4.8 75.2642 4.35 74.6309 4.35C72.9642 4.35 70.8975 6.1 68.4309 9.6C68.3309 9.73333 68.1809 9.95 67.9809 10.25C67.1142 11.5167 66.4475 12.5167 65.9809 13.25C65.5142 13.95 65.0142 14.9 64.4809 16.1C63.9475 17.3 63.5809 18.45 63.3809 19.55C63.0809 21.1833 62.3309 22 61.1309 22C60.0309 22 59.0475 20.7 58.1809 18.1C57.3142 15.4667 56.7975 12.9333 56.6309 10.5C56.5975 10.2667 56.5309 9.66667 56.4309 8.7C56.3642 7.7 56.2975 7 56.2309 6.6C56.1975 6.2 56.0975 5.63333 55.9309 4.9C55.7975 4.16667 55.6309 3.51667 55.4309 2.95C55.3975 2.91667 55.3809 2.83333 55.3809 2.7C55.3809 1.9 55.7142 1.5 56.3809 1.5C56.7475 1.5 57.0642 1.58333 57.3309 1.75C59.7642 3.01667 61.0309 4.93333 61.1309 7.5C61.1642 8.66667 61.4975 11.3167 62.1309 15.45C62.1642 15.5833 62.2809 15.7833 62.4809 16.05C63.0142 15.3167 63.5475 14.5167 64.0809 13.65C64.6142 12.7833 65.1975 11.8 65.8309 10.7C66.4975 9.6 66.9975 8.76667 67.3309 8.2C68.1975 6.8 69.3309 5.51667 70.7309 4.35C72.1309 3.18333 73.4309 2.6 74.6309 2.6C77.0642 2.6 78.2809 4.75 78.2809 9.05C78.2809 9.45 78.1975 11.15 78.0309 14.15C77.9642 14.55 77.8309 15.3667 77.6309 16.6C77.4309 17.8333 77.2642 18.9167 77.1309 19.85C77.0309 20.75 76.9809 21.5833 76.9809 22.35C76.9809 25.4833 77.5309 27.05 78.6309 27.05C78.9309 27.05 79.3809 26.8167 79.9809 26.35C80.5809 25.9167 81.0142 25.5 81.2809 25.1C84.2475 20.7 86.5975 17.1 88.3309 14.3ZM88.4262 11.05C88.5262 10.0167 88.6262 9.11667 88.7262 8.35C88.8595 7.55 89.0928 6.58333 89.4262 5.45C89.7928 4.31667 90.2095 3.4 90.6762 2.7C91.1428 1.96667 91.7928 1.35 92.6262 0.849999C93.4595 0.349999 94.4095 0.149999 95.4762 0.249999C98.8428 0.583332 100.66 3.95 100.926 10.35C100.96 11.3833 100.91 12.4667 100.776 13.6C100.643 14.7333 100.376 15.9 99.9762 17.1C99.6095 18.3 99.0095 19.3167 98.1762 20.15C97.3762 20.9833 96.4095 21.4667 95.2762 21.6C93.7762 21.7333 92.4428 21.1667 91.2762 19.9C90.1095 18.6333 89.2928 17.1667 88.8262 15.5C88.3595 13.8333 88.2262 12.35 88.4262 11.05ZM91.2262 10.15C91.1928 10.45 91.1762 10.6667 91.1762 10.8C91.1762 10.9333 91.1762 11.3333 91.1762 12C91.2095 12.6667 91.2262 13.2167 91.2262 13.65C91.2595 14.05 91.3095 14.6 91.3762 15.3C91.4428 15.9667 91.5428 16.5333 91.6762 17C91.8428 17.4333 92.0262 17.9 92.2262 18.4C92.4595 18.8667 92.7428 19.2333 93.0762 19.5C93.4428 19.7667 93.8595 19.9333 94.3262 20C97.3595 20.4 99.2262 17.4667 99.9262 11.2C99.9595 10.4 99.9262 9.51667 99.8262 8.55C99.7595 7.55 99.5928 6.5 99.3262 5.4C99.0595 4.26667 98.6095 3.35 97.9762 2.65C97.3428 1.91667 96.5762 1.56667 95.6762 1.6C94.9762 1.63333 94.3428 1.86667 93.7762 2.3C93.2428 2.73333 92.8262 3.23333 92.5262 3.8C92.2595 4.36667 92.0262 5.08333 91.8262 5.95C91.6262 6.81667 91.4928 7.55 91.4262 8.15C91.3595 8.71667 91.2928 9.38333 91.2262 10.15Z" fill="white"/>
</g>
</svg>
