<svg width="109" height="35" viewBox="0 0 109 35" fill="none" xmlns="http://www.w3.org/2000/svg">
<mask id="mask0_1130_25" style="mask-type:alpha" maskUnits="userSpaceOnUse" x="0" y="0" width="109" height="35">
<rect width="109" height="35" fill="#D9D9D9"/>
</mask>
<g mask="url(#mask0_1130_25)">
<g filter="url(#filter0_i_1130_25)">
<path d="M4.28369 27.3306C2.1027 23.6766 1.01221 19.6361 1.01221 15.209C1.01221 11.5957 1.85449 8.32422 3.53906 5.39453C5.23177 2.46484 8.03939 1 11.9619 1C18.6025 1.83822 21.9229 6.40365 21.9229 14.6963C21.9229 20.1569 20.6655 25.1984 18.1509 29.8208C16.9058 32.1076 15.1683 33.251 12.9385 33.251C12.5153 33.251 11.4696 33.1004 9.80127 32.7993C8.13298 32.5063 6.29378 30.6834 4.28369 27.3306ZM16.6006 29.3203C17.5771 28.0752 18.2933 26.5371 18.749 24.7061C19.2048 22.875 19.4855 20.5679 19.5913 17.7847C19.5913 15.0015 19.3757 12.6984 18.9443 10.8755C18.5212 9.04443 17.9596 7.57145 17.2598 6.45654C16.568 5.3335 15.8722 4.48714 15.1724 3.91748C14.4806 3.33968 13.8906 2.9694 13.4023 2.80664L12.6821 2.55029C9.94775 3.04671 8.01904 5.37012 6.896 9.52051C6.22868 11.8887 5.89502 14.326 5.89502 16.8325C5.89502 18.7775 6.25309 21.2922 6.96924 24.3765C7.68538 27.4608 9.1014 29.5278 11.2173 30.5776C12.0636 30.9927 12.8408 31.2002 13.5488 31.2002C14.6068 31.2002 15.624 30.5736 16.6006 29.3203ZM23.8882 15.2944C24.116 14.5946 24.5596 14.1836 25.2188 14.0615C25.4059 14.029 25.5931 14.0127 25.7803 14.0127C26.2441 14.0127 26.7528 14.1388 27.3062 14.3911C27.8595 14.6353 28.2217 15.0096 28.3926 15.5142L28.1729 17.4917C27.8636 19.7785 27.709 22.0205 27.709 24.2178C27.709 24.527 27.7212 25.3815 27.7456 26.7812C27.77 28.181 28.3641 29.5604 29.5278 30.9194C30.9683 29.2104 32.0465 26.4435 32.7627 22.6187C33.1208 20.7306 33.2998 18.9321 33.2998 17.2231C33.2998 15.4572 33.1086 13.7808 32.7261 12.1938C33.0353 11.9904 33.6823 11.8846 34.667 11.8765H34.7036C35.6802 11.8765 36.4329 12.1613 36.9619 12.731C37.499 13.2925 37.792 14.3423 37.8408 15.8804C37.8164 17.5324 37.495 19.6279 36.8765 22.167C36.258 24.6979 35.2773 26.8708 33.9346 28.6855C32.5918 30.5003 31.6966 31.7292 31.249 32.3721C30.8747 32.9336 30.4393 33.2144 29.9429 33.2144C29.6743 33.2144 29.2471 33.0516 28.6611 32.7261C28.0833 32.4087 27.1271 31.1799 25.7925 29.0396C25.1252 27.9165 24.645 26.59 24.3521 25.0601C24.0591 23.5301 23.8841 22.0246 23.8271 20.5435C23.7946 19.7459 23.7783 19.0176 23.7783 18.3584C23.7783 17.7887 23.7946 17.1377 23.8271 16.4053L23.8882 15.2944ZM42.0034 25.9756C41.4907 25.1048 40.9048 24.2422 40.2456 23.3877C39.505 22.4437 39.0615 21.634 38.915 20.9585C38.7604 20.283 38.6831 19.7581 38.6831 19.3838C38.6831 18.7165 38.8092 18.0125 39.0615 17.272C39.4603 16.1082 40.1602 15.1235 41.1611 14.3179C42.097 13.7808 42.9108 13.5122 43.6025 13.5122C44.3512 13.5122 44.9535 13.8296 45.4092 14.4644C45.458 14.6027 45.4824 14.7329 45.4824 14.855C45.4824 15.091 45.3929 15.2822 45.2139 15.4287C44.1234 16.4134 43.5781 17.5975 43.5781 18.981C43.5781 20.3807 44.1315 21.988 45.2383 23.8027L49.9624 20.2505C50.3205 20.2017 50.5443 20.5231 50.6338 21.2148L46.0562 25.0967C46.8049 26.2767 47.2077 27.2248 47.2646 27.9409C47.3216 28.6571 47.3501 29.0802 47.3501 29.2104C47.3501 30.3416 46.9269 31.3385 46.0806 32.2012C44.4204 33.4626 43.0614 34.0933 42.0034 34.0933C41.6616 34.0933 41.3524 34.0282 41.0757 33.8979C39.9771 33.3771 39.4277 32.3436 39.4277 30.7974L39.4399 30.5654C39.4888 28.8809 40.3433 27.3509 42.0034 25.9756ZM43.1753 31.4565C43.4194 30.9194 43.5415 30.3457 43.5415 29.7354C43.5415 28.8727 43.2974 27.9368 42.8091 26.9277C42.4103 27.3428 41.9993 27.8392 41.5762 28.417C41.1611 29.0029 40.9048 29.5075 40.8071 29.9307C40.7176 30.3538 40.6729 30.6549 40.6729 30.834C40.6729 31.3304 40.8275 31.839 41.1367 32.3599C41.3646 32.661 41.5965 32.8115 41.8325 32.8115C41.9546 32.8115 42.0767 32.7749 42.1987 32.7017C42.5649 32.4657 42.8905 32.0506 43.1753 31.4565ZM50.7925 17.1377C51.061 16.7552 51.3052 16.5436 51.5249 16.5029C51.7446 16.4541 51.9115 16.4297 52.0254 16.4297C52.2451 16.4297 52.4689 16.4704 52.6968 16.5518C53.0304 16.682 53.3397 16.8529 53.6245 17.0645C53.9175 17.2679 54.1494 17.4551 54.3203 17.626L54.5889 17.8823C54.4424 18.867 54.2674 19.7541 54.064 20.5435C53.8687 21.3247 53.7303 22.2809 53.6489 23.4121C53.5675 24.5352 53.5269 25.3815 53.5269 25.9512C53.5269 26.8952 53.5879 27.7863 53.71 28.6245C53.889 29.9591 54.1413 30.6956 54.4668 30.834C54.8005 30.9723 54.9917 31.0415 55.0405 31.0415C55.6265 31.0415 56.2897 29.5767 57.0303 26.647C57.8278 23.4813 58.2428 21.8171 58.2754 21.6543C58.3324 21.3939 58.4178 21.223 58.5317 21.1416C58.6457 21.0521 58.7637 21.0073 58.8857 21.0073H58.9468C59.0851 21.0236 59.1991 21.0643 59.2886 21.1294C59.3862 21.1864 59.5612 21.3125 59.8135 21.5078C59.7728 21.5078 59.3252 23.4121 58.4707 27.2207C57.6081 31.0374 56.6641 32.9743 55.6387 33.0312C54.6214 33.0882 54.0802 33.1167 54.0151 33.1167C52.1353 33.1167 50.764 31.4565 49.9014 28.1362C49.5596 26.8504 49.3887 25.528 49.3887 24.1689C49.3887 21.9147 49.8566 19.571 50.7925 17.1377ZM68.2729 15.1113C68.8182 14.6637 69.4285 14.4399 70.104 14.4399C70.397 14.4399 70.8812 14.5295 71.5566 14.7085C72.2402 14.8794 72.696 15.4491 72.9238 16.4175C72.7936 17.866 72.6187 19.339 72.3989 20.8364C72.0653 22.9686 71.874 24.9543 71.8252 26.7935L71.813 27.1108C71.813 28.7873 72.1833 30.1219 72.9238 31.1147C72.9157 31.1147 72.9035 31.1514 72.8872 31.2246C72.8628 31.3548 72.8099 31.5216 72.7285 31.7251C72.6471 31.9367 72.5088 32.132 72.3135 32.311C72.1263 32.4657 71.87 32.543 71.5444 32.543C71.5282 32.543 71.4264 32.5389 71.2393 32.5308C71.0521 32.5226 70.6777 32.3599 70.1162 32.0425C69.3594 31.5461 68.8304 30.5695 68.5293 29.1128C68.2363 27.6561 68.0817 26.0773 68.0654 24.3765C68.0573 24.0103 68.0532 23.6562 68.0532 23.3145C68.0532 22.0531 68.0939 20.8568 68.1753 19.7256L68.5903 17.1011C67.7358 17.9393 66.9953 19.0054 66.3687 20.2993C65.7502 21.5933 65.1357 23.0418 64.5254 24.645C63.9232 26.2482 63.4268 27.6602 63.0361 28.8809C62.7188 29.8656 62.5601 30.484 62.5601 30.7363C62.5601 30.7933 62.5682 30.8299 62.5845 30.8462C62.5926 30.8625 62.5967 30.8828 62.5967 30.9072C62.6211 31.1514 62.6414 31.3304 62.6577 31.4443C62.674 31.5664 62.6862 31.6559 62.6943 31.7129C62.7025 31.778 62.7147 31.8472 62.731 31.9204C62.7391 31.9937 62.7554 32.1035 62.7798 32.25C62.8123 32.3965 62.853 32.6162 62.9019 32.9092C62.8123 32.9661 62.6414 33.0435 62.3892 33.1411C62.2345 33.1899 62.0636 33.2144 61.8765 33.2144C61.7463 33.2144 61.5509 33.1899 61.2905 33.1411C61.0382 33.1004 60.7209 32.8726 60.3384 32.4575C58.8084 29.3162 58.0435 26.2279 58.0435 23.1924C58.0435 23.0785 58.0557 22.2077 58.0801 20.5801C58.1045 18.9525 58.2795 16.918 58.605 14.4766C58.9631 14.1185 59.4432 13.9069 60.0454 13.8418C60.2896 13.8174 60.5296 13.8052 60.7656 13.8052C61.1237 13.8052 61.5306 13.8459 61.9863 13.9272C62.4502 14.0086 62.8164 14.1266 63.085 14.2812C63.2477 14.444 63.3291 14.7858 63.3291 15.3066C63.3291 15.8275 63.2477 16.5314 63.085 17.4185C62.5885 19.6971 62.2223 22.9808 61.9863 27.2695C62.6781 25.4385 63.2437 23.8882 63.6831 22.6187C64.1877 21.0887 64.798 19.6279 65.5142 18.2363C66.2384 16.8366 67.158 15.7949 68.2729 15.1113ZM77.2939 7.53076C77.8066 7.53076 78.2868 7.58773 78.7344 7.70166C79.182 7.80745 79.5116 7.93766 79.7231 8.09229C79.8615 8.24691 79.9307 8.57243 79.9307 9.06885C79.9307 9.83382 79.772 10.9935 79.4546 12.5479C78.6652 16.0553 78.1891 20.3848 78.0264 25.5361C80.4027 23.6888 81.9082 21.6421 82.543 19.396C82.9336 18.0369 83.1289 16.922 83.1289 16.0513C83.1289 15.4816 83.0435 15.0177 82.8726 14.6597C83.3039 14.3993 83.8857 14.269 84.6182 14.269H84.6792C85.3058 14.2772 85.8348 14.3708 86.2661 14.5498C86.6079 14.6963 86.7788 14.8875 86.7788 15.1235C86.7788 15.1886 86.7625 15.2619 86.73 15.3433C86.6405 17.6951 85.8551 20.104 84.374 22.5698C82.8929 25.0275 80.8625 26.8341 78.2827 27.9897C80.7485 29.3488 82.8075 30.0283 84.4595 30.0283C84.7443 30.0283 85.0129 30.008 85.2651 29.9673C85.7778 30.1707 86.0342 30.3783 86.0342 30.5898C86.0342 30.6387 85.9894 30.7445 85.8999 30.9072C85.8185 31.07 85.5296 31.2368 85.0332 31.4077C84.6263 31.5542 84.2275 31.6274 83.8369 31.6274C83.7474 31.6274 83.6579 31.6234 83.5684 31.6152C81.6478 31.3141 79.8208 30.6956 78.0874 29.7598C78.12 30.8747 78.1729 32.0547 78.2461 33.2998C78.1566 33.373 77.9694 33.4626 77.6846 33.5684C77.5218 33.6253 77.3468 33.6538 77.1597 33.6538C77.0213 33.6538 76.8179 33.6253 76.5493 33.5684C76.2808 33.5114 75.9674 33.2469 75.6094 32.7749C74.4375 29.2023 73.8516 25.41 73.8516 21.3979C73.8516 20.8771 73.9004 19.339 73.998 16.7837C74.0957 14.2284 74.4375 11.4004 75.0234 8.2998C75.5768 7.78711 76.2848 7.53076 77.1475 7.53076H77.2939ZM92.6016 14.6963C94.0664 14.501 95.0674 14.5132 95.6045 14.7329C96.1416 14.9526 96.6095 15.2212 97.0083 15.5386C97.4152 15.8478 97.7326 16.1286 97.9604 16.3809L98.29 16.7471C98.6562 15.8519 98.88 15.266 98.9614 14.9893C99.2544 14.6882 99.702 14.5376 100.304 14.5376C100.613 14.5376 101.155 14.6149 101.928 14.7695C102.701 14.9242 103.087 15.6688 103.087 17.0034C101.956 21.2352 101.391 24.6125 101.391 27.1353C101.391 27.3631 101.395 27.5828 101.403 27.7944C101.484 29.5848 101.798 30.48 102.343 30.48C102.587 30.48 103.067 30.1097 103.783 29.3691C104.499 28.6286 105.553 25.8779 106.945 21.1172C107.14 20.5801 107.58 20.5679 108.263 21.0806C107.458 24.7671 106.44 27.7049 105.211 29.894C103.983 32.0913 102.742 33.2225 101.488 33.2876H101.354C100.166 33.2876 99.1893 32.5104 98.4243 30.9561C97.7977 29.6702 97.4844 27.9206 97.4844 25.707C97.4844 25.1374 97.5047 24.5392 97.5454 23.9126C96.5607 28.4536 95.34 31.2327 93.8833 32.25C93.3299 32.6325 92.7928 32.8237 92.272 32.8237C91.4338 32.8237 90.5304 32.1523 89.562 30.8096C88.5936 29.4749 88.0605 27.4242 87.9629 24.6572C87.8734 21.8903 88.2559 19.5872 89.1104 17.748C89.973 15.9089 91.1367 14.8916 92.6016 14.6963ZM97.6431 18.8833C96.9513 16.8244 95.991 15.8275 94.7622 15.8926C93.5334 15.9495 92.7806 17.6667 92.5039 21.0439C92.2272 24.4131 92.1784 26.8138 92.3574 28.2461C92.5365 29.6784 92.8213 30.4678 93.2119 30.6143C93.5456 30.598 93.9525 30.012 94.4326 28.8564C94.9209 27.7008 95.4092 26.354 95.8975 24.8159C96.3857 23.2697 96.8008 21.8944 97.1426 20.6899L97.6431 18.8833Z" fill="url(#paint0_linear_1130_25)"/>
</g>
</g>
<g clip-path="url(#clip0_1130_25)">
<rect width="7" height="7" transform="translate(50 8)" fill="transparent"/>
<g filter="url(#filter1_i_1130_25)">
<path d="M53.8843 9.09911C54.2244 9.04007 54.505 8.97648 54.7891 8.94519C55.2736 8.8917 55.6975 9.02341 56.0508 9.38272C56.6881 10.0388 56.8532 10.7957 56.5933 11.6597C56.4499 12.1356 56.0916 12.4303 55.6905 12.669C55.2696 12.9213 54.826 13.1343 54.397 13.3755C53.8066 13.7045 53.309 14.1325 52.9633 14.726C52.8952 14.8425 52.767 14.9243 52.6868 15.002C52.4849 14.9879 52.3688 14.9298 52.3335 14.7583C52.3118 14.6604 52.273 14.566 52.2477 14.4686C52.1362 14.0452 51.9333 13.6652 51.7047 13.2953C51.3626 12.7432 50.9922 12.2088 50.6954 11.6299C50.4479 11.1512 50.3102 10.6233 50.2922 10.0847C50.2735 9.47457 50.4734 8.924 50.9361 8.48495C51.467 7.9803 52.6267 7.74312 53.4089 8.40976C53.5689 8.54601 53.6744 8.74737 53.7985 8.92248C53.8326 8.97851 53.8614 9.03765 53.8843 9.09911ZM52.6878 13.975C52.7268 13.9551 52.763 13.93 52.7953 13.9003C53.2525 13.3412 53.8338 12.9506 54.4758 12.6327C54.8628 12.4409 55.2413 12.2289 55.6082 11.9988C56.1795 11.6456 56.292 11.1445 56.1557 10.5318C56.1074 10.3504 56.0318 10.1774 55.9317 10.0186C55.745 9.69762 55.4578 9.52503 55.0844 9.49274C54.7013 9.45993 54.339 9.50838 53.9963 9.70015C53.8051 9.80663 53.6269 9.73194 53.5356 9.53513C53.5114 9.48264 53.4931 9.42763 53.4811 9.37112C53.4049 9.0224 53.1586 8.83821 52.8513 8.71154C52.5822 8.60091 52.2875 8.56753 52.0004 8.61515C51.8581 8.63545 51.7221 8.68717 51.6023 8.76655C51.1557 9.08447 50.8872 9.51646 50.8609 10.0731C50.8344 10.5674 50.9525 11.0587 51.2006 11.4871C51.3732 11.7899 51.5538 12.0831 51.74 12.3753C52.0509 12.8623 52.3774 13.3387 52.603 13.8746C52.6265 13.9118 52.655 13.9456 52.6878 13.975Z" fill="url(#paint1_linear_1130_25)"/>
<path d="M52.6873 13.9752C52.655 13.9455 52.627 13.9116 52.604 13.8742C52.3784 13.3383 52.0519 12.8619 51.7411 12.3749C51.5533 12.0832 51.3742 11.7875 51.2001 11.4872C50.9516 11.0593 50.8331 10.5684 50.8589 10.0742C50.8852 9.51911 51.1537 9.08562 51.6003 8.76769C51.7201 8.68831 51.8561 8.6366 51.9984 8.61629C52.2859 8.56806 52.5811 8.6011 52.8508 8.71167C53.1581 8.83834 53.4059 9.02254 53.4806 9.37125C53.4927 9.42777 53.5109 9.48277 53.5351 9.53526C53.6264 9.73207 53.8046 9.80676 53.9959 9.70028C54.3385 9.50851 54.7024 9.46007 55.0839 9.49287C55.4573 9.52517 55.7445 9.69776 55.9312 10.0187C56.0313 10.1775 56.1069 10.3505 56.1553 10.5319C56.2915 11.1446 56.179 11.6422 55.6077 11.999C55.2408 12.2276 54.8623 12.441 54.4753 12.6328C53.8334 12.9507 53.252 13.3393 52.7948 13.9005C52.7625 13.9301 52.7263 13.9552 52.6873 13.9752Z" fill="url(#paint2_linear_1130_25)"/>
</g>
</g>
<defs>
<filter id="filter0_i_1130_25" x="1.01172" y="1" width="107.252" height="35.0933" filterUnits="userSpaceOnUse" color-interpolation-filters="sRGB">
<feFlood flood-opacity="0" result="BackgroundImageFix"/>
<feBlend mode="normal" in="SourceGraphic" in2="BackgroundImageFix" result="shape"/>
<feColorMatrix in="SourceAlpha" type="matrix" values="0 0 0 0 0 0 0 0 0 0 0 0 0 0 0 0 0 0 127 0" result="hardAlpha"/>
<feOffset dy="2"/>
<feGaussianBlur stdDeviation="2"/>
<feComposite in2="hardAlpha" operator="arithmetic" k2="-1" k3="1"/>
<feColorMatrix type="matrix" values="0 0 0 0 0.101961 0 0 0 0 0.513726 0 0 0 0 0.101961 0 0 0 0.25 0"/>
<feBlend mode="normal" in2="shape" result="effect1_innerShadow_1130_25"/>
</filter>
<filter id="filter1_i_1130_25" x="50.291" y="8.00049" width="6.41992" height="9.00146" filterUnits="userSpaceOnUse" color-interpolation-filters="sRGB">
<feFlood flood-opacity="0" result="BackgroundImageFix"/>
<feBlend mode="normal" in="SourceGraphic" in2="BackgroundImageFix" result="shape"/>
<feColorMatrix in="SourceAlpha" type="matrix" values="0 0 0 0 0 0 0 0 0 0 0 0 0 0 0 0 0 0 127 0" result="hardAlpha"/>
<feOffset dy="2"/>
<feGaussianBlur stdDeviation="1.5"/>
<feComposite in2="hardAlpha" operator="arithmetic" k2="-1" k3="1"/>
<feColorMatrix type="matrix" values="0 0 0 0 0.101961 0 0 0 0 0.513726 0 0 0 0 0.101961 0 0 0 0.25 0"/>
<feBlend mode="normal" in2="shape" result="effect1_innerShadow_1130_25"/>
</filter>
<linearGradient id="paint0_linear_1130_25" x1="98.581" y1="21.9388" x2="-1.26049" y2="21.5524" gradientUnits="userSpaceOnUse">
<stop stop-color="#1F8B1F"/>
<stop offset="0.505208" stop-color="#D5FE60"/>
<stop offset="1" stop-color="#1A831A"/>
</linearGradient>
<linearGradient id="paint1_linear_1130_25" x1="48" y1="11.5" x2="58" y2="11.5" gradientUnits="userSpaceOnUse">
<stop stop-color="#D5FE60"/>
<stop offset="0.989583" stop-color="#A8E063"/>
</linearGradient>
<linearGradient id="paint2_linear_1130_25" x1="48.9456" y1="11.284" x2="57.2819" y2="11.284" gradientUnits="userSpaceOnUse">
<stop stop-color="#D5FE60"/>
<stop offset="0.989583" stop-color="#A8E063"/>
</linearGradient>
<clipPath id="clip0_1130_25">
<rect width="7" height="7" fill="white" transform="translate(50 8)"/>
</clipPath>
</defs>
</svg>
