<svg width="39" height="27" viewBox="0 0 39 27" fill="none" xmlns="http://www.w3.org/2000/svg">
<path d="M37.8 11C37.8333 10.9667 37.8667 10.95 37.9 10.95C38.2667 10.95 38.45 11.0833 38.45 11.35C38.4833 11.5833 38.4 11.95 38.2 12.45C38.1667 12.5833 38.1333 12.6833 38.1 12.75C37.8667 12.8833 36.1 15.6667 32.8 21.1C32.1 22.2667 31.5333 23.1667 31.1 23.8C30.7 24.4333 30.1 25.0667 29.3 25.7C28.5333 26.3667 27.7667 26.7 27 26.7C25.6667 26.7 24.4833 26 23.45 24.6C22.4167 23.2 21.9 21.7333 21.9 20.2C21.9 19.6 21.9333 19.15 22 18.85C22.2 17.6833 22.4333 16.45 22.7 15.15C23 13.85 23.3333 12.4 23.7 10.8C24.0667 9.16667 24.35 7.93333 24.55 7.1C24.5833 6.96667 24.7667 6.31667 25.1 5.15C25.4333 3.98333 25.6 3.13333 25.6 2.6C25.6 2.23333 25.4 2.05 25 2.05C24.9 2.05 24.7833 2.08333 24.65 2.15C21.95 3.48333 19.9167 5.91667 18.55 9.45C18.4167 9.78333 18.1833 10.4333 17.85 11.4C17.55 12.3667 17.2667 13.1833 17 13.85C16.7333 14.4833 16.4 15.1833 16 15.95C15.6333 16.7167 15.2167 17.3 14.75 17.7C14.2833 18.1 13.7833 18.3 13.25 18.3C12.8167 18.3 12.45 18.1833 12.15 17.95C11.8833 17.7167 11.6833 17.35 11.55 16.85C11.4167 16.35 11.3167 15.9 11.25 15.5C11.1833 15.1 11.1333 14.5667 11.1 13.9C11.0667 13.2 11.0333 12.7167 11 12.45C10.9667 12.3167 10.8667 12.1333 10.7 11.9C10.5333 11.6667 10.4333 11.5 10.4 11.4C8.93333 12.3667 7.71667 14.7667 6.75 18.6C6.38333 19.9333 5.88333 20.6 5.25 20.6C4.28333 20.6 3.45 20.0833 2.75 19.05C2.08333 17.9833 1.61667 16.8833 1.35 15.75C1.25 15.3833 1.15 14.6667 1.05 13.6C0.983333 12.5 0.916667 11.3833 0.85 10.25C0.783333 9.11667 0.75 8.53333 0.75 8.5C0.75 8.26667 0.7 7.86667 0.6 7.3C0.533333 6.7 0.5 6.23333 0.5 5.9C0.5 5.76667 0.616667 5.61667 0.85 5.45C1.08333 5.28333 1.26667 5.2 1.4 5.2C2.43333 5.36667 3.36667 5.88333 4.2 6.75C5.03333 7.58333 5.51667 8.5 5.65 9.5L5.7 12.1C5.83333 13.4667 6.08333 14.1667 6.45 14.2C6.61667 14.2 6.91667 13.8 7.35 13C7.81667 12.2 8.36667 11.4 9 10.6C9.63333 9.76667 10.2667 9.35 10.9 9.35C11.5 9.35 11.9 9.81667 12.1 10.75C12.3 11.6833 12.4667 12.7833 12.6 14.05C12.7667 15.2833 13.05 16.1333 13.45 16.6C13.5167 16.5333 13.6667 16.4 13.9 16.2C14.1333 16 14.3 15.85 14.4 15.75C14.7667 15.1833 15.1167 14.4667 15.45 13.6C15.7833 12.7 16.1167 11.7 16.45 10.6C16.7833 9.5 17.0667 8.66667 17.3 8.1C18.0333 6.16667 19.1 4.38333 20.5 2.75C21.9333 1.08333 23.5333 0.249999 25.3 0.249999C26.6 0.249999 27.6833 0.683333 28.55 1.55C29.4167 2.41667 29.85 3.46667 29.85 4.7C29.85 6.23333 29.4333 8.35 28.6 11.05C28.5333 11.3167 28.3333 12 28 13.1C27.6667 14.1667 27.4333 14.8833 27.3 15.25C27.2 15.6167 27.0333 16.2667 26.8 17.2C26.5667 18.1333 26.4 18.8833 26.3 19.45C26.2 19.9833 26.1 20.65 26 21.45C25.9333 22.25 25.9 23 25.9 23.7C25.9 24.0667 26 24.35 26.2 24.55C26.4 24.7833 26.6333 24.9 26.9 24.9C27.3 24.9 27.8667 24.5833 28.6 23.95C29.3333 23.35 29.8667 22.7833 30.2 22.25C30.8333 21.25 32.05 19.5167 33.85 17.05C35.65 14.5833 36.9667 12.5667 37.8 11Z" fill="#383636"/>
</svg>
