<svg width="99" height="30" viewBox="0 0 99 30" fill="none" xmlns="http://www.w3.org/2000/svg">
<path d="M37.8 12C37.8333 11.9667 37.8667 11.95 37.9 11.95C38.2667 11.95 38.45 12.0833 38.45 12.35C38.4833 12.5833 38.4 12.95 38.2 13.45C38.1667 13.5833 38.1333 13.6833 38.1 13.75C37.8667 13.8833 36.1 16.6667 32.8 22.1C32.1 23.2667 31.5333 24.1667 31.1 24.8C30.7 25.4333 30.1 26.0667 29.3 26.7C28.5333 27.3667 27.7667 27.7 27 27.7C25.6667 27.7 24.4833 27 23.45 25.6C22.4167 24.2 21.9 22.7333 21.9 21.2C21.9 20.6 21.9333 20.15 22 19.85C22.2 18.6833 22.4333 17.45 22.7 16.15C23 14.85 23.3333 13.4 23.7 11.8C24.0667 10.1667 24.35 8.93333 24.55 8.1C24.5833 7.96667 24.7667 7.31667 25.1 6.15C25.4333 4.98333 25.6 4.13333 25.6 3.6C25.6 3.23333 25.4 3.05 25 3.05C24.9 3.05 24.7833 3.08333 24.65 3.15C21.95 4.48333 19.9167 6.91667 18.55 10.45C18.4167 10.7833 18.1833 11.4333 17.85 12.4C17.55 13.3667 17.2667 14.1833 17 14.85C16.7333 15.4833 16.4 16.1833 16 16.95C15.6333 17.7167 15.2167 18.3 14.75 18.7C14.2833 19.1 13.7833 19.3 13.25 19.3C12.8167 19.3 12.45 19.1833 12.15 18.95C11.8833 18.7167 11.6833 18.35 11.55 17.85C11.4167 17.35 11.3167 16.9 11.25 16.5C11.1833 16.1 11.1333 15.5667 11.1 14.9C11.0667 14.2 11.0333 13.7167 11 13.45C10.9667 13.3167 10.8667 13.1333 10.7 12.9C10.5333 12.6667 10.4333 12.5 10.4 12.4C8.93333 13.3667 7.71667 15.7667 6.75 19.6C6.38333 20.9333 5.88333 21.6 5.25 21.6C4.28333 21.6 3.45 21.0833 2.75 20.05C2.08333 18.9833 1.61667 17.8833 1.35 16.75C1.25 16.3833 1.15 15.6667 1.05 14.6C0.983333 13.5 0.916667 12.3833 0.85 11.25C0.783333 10.1167 0.75 9.53333 0.75 9.5C0.75 9.26667 0.7 8.86667 0.6 8.3C0.533333 7.7 0.5 7.23333 0.5 6.9C0.5 6.76667 0.616667 6.61667 0.85 6.45C1.08333 6.28333 1.26667 6.2 1.4 6.2C2.43333 6.36667 3.36667 6.88333 4.2 7.75C5.03333 8.58333 5.51667 9.5 5.65 10.5L5.7 13.1C5.83333 14.4667 6.08333 15.1667 6.45 15.2C6.61667 15.2 6.91667 14.8 7.35 14C7.81667 13.2 8.36667 12.4 9 11.6C9.63333 10.7667 10.2667 10.35 10.9 10.35C11.5 10.35 11.9 10.8167 12.1 11.75C12.3 12.6833 12.4667 13.7833 12.6 15.05C12.7667 16.2833 13.05 17.1333 13.45 17.6C13.5167 17.5333 13.6667 17.4 13.9 17.2C14.1333 17 14.3 16.85 14.4 16.75C14.7667 16.1833 15.1167 15.4667 15.45 14.6C15.7833 13.7 16.1167 12.7 16.45 11.6C16.7833 10.5 17.0667 9.66667 17.3 9.1C18.0333 7.16667 19.1 5.38333 20.5 3.75C21.9333 2.08333 23.5333 1.25 25.3 1.25C26.6 1.25 27.6833 1.68333 28.55 2.55C29.4167 3.41667 29.85 4.46667 29.85 5.7C29.85 7.23333 29.4333 9.35 28.6 12.05C28.5333 12.3167 28.3333 13 28 14.1C27.6667 15.1667 27.4333 15.8833 27.3 16.25C27.2 16.6167 27.0333 17.2667 26.8 18.2C26.5667 19.1333 26.4 19.8833 26.3 20.45C26.2 20.9833 26.1 21.65 26 22.45C25.9333 23.25 25.9 24 25.9 24.7C25.9 25.0667 26 25.35 26.2 25.55C26.4 25.7833 26.6333 25.9 26.9 25.9C27.3 25.9 27.8667 25.5833 28.6 24.95C29.3333 24.35 29.8667 23.7833 30.2 23.25C30.8333 22.25 32.05 20.5167 33.85 18.05C35.65 15.5833 36.9667 13.5667 37.8 12ZM36.3285 11.05C36.4285 10.0167 36.5285 9.11667 36.6285 8.35C36.7618 7.55 36.9952 6.58333 37.3285 5.45C37.6952 4.31667 38.1118 3.4 38.5785 2.7C39.0452 1.96667 39.6952 1.35 40.5285 0.849999C41.3618 0.349999 42.3118 0.149999 43.3785 0.249999C46.7452 0.583332 48.5618 3.95 48.8285 10.35C48.8618 11.3833 48.8118 12.4667 48.6785 13.6C48.5452 14.7333 48.2785 15.9 47.8785 17.1C47.5118 18.3 46.9118 19.3167 46.0785 20.15C45.2785 20.9833 44.3118 21.4667 43.1785 21.6C41.6785 21.7333 40.3452 21.1667 39.1785 19.9C38.0118 18.6333 37.1952 17.1667 36.7285 15.5C36.2618 13.8333 36.1285 12.35 36.3285 11.05ZM39.1285 10.15C39.0952 10.45 39.0785 10.6667 39.0785 10.8C39.0785 10.9333 39.0785 11.3333 39.0785 12C39.1118 12.6667 39.1285 13.2167 39.1285 13.65C39.1618 14.05 39.2118 14.6 39.2785 15.3C39.3452 15.9667 39.4452 16.5333 39.5785 17C39.7452 17.4333 39.9285 17.9 40.1285 18.4C40.3618 18.8667 40.6452 19.2333 40.9785 19.5C41.3452 19.7667 41.7618 19.9333 42.2285 20C45.2618 20.4 47.1285 17.4667 47.8285 11.2C47.8618 10.4 47.8285 9.51667 47.7285 8.55C47.6618 7.55 47.4952 6.5 47.2285 5.4C46.9618 4.26667 46.5118 3.35 45.8785 2.65C45.2452 1.91667 44.4785 1.56667 43.5785 1.6C42.8785 1.63333 42.2452 1.86667 41.6785 2.3C41.1452 2.73333 40.7285 3.23333 40.4285 3.8C40.1618 4.36667 39.9285 5.08333 39.7285 5.95C39.5285 6.81667 39.3952 7.55 39.3285 8.15C39.2618 8.71667 39.1952 9.38333 39.1285 10.15ZM86.3309 14.3C86.3642 14.2667 86.5642 14.05 86.9309 13.65C87.2975 13.2167 87.4975 12.95 87.5309 12.85C87.5642 12.9833 87.6309 13.05 87.7309 13.05C87.7642 13.05 87.8142 13.05 87.8809 13.05C87.9475 13.0167 87.9975 13 88.0309 13C88.1309 13 88.2309 13.0833 88.3309 13.25C88.2975 13.2833 88.1475 13.5167 87.8809 13.95C87.6142 14.35 87.3309 14.7833 87.0309 15.25C86.7642 15.6833 86.6142 15.9333 86.5809 16C85.9142 17.0667 84.9809 18.6333 83.7809 20.7C82.6142 22.7333 81.7642 24.1833 81.2309 25.05C81.1309 25.2167 80.9642 25.4833 80.7309 25.85C80.4975 26.25 80.3309 26.5167 80.2309 26.65C80.1642 26.7833 80.0309 27 79.8309 27.3C79.6642 27.6 79.5309 27.8 79.4309 27.9C79.3642 28 79.2475 28.15 79.0809 28.35C78.9475 28.55 78.8142 28.6833 78.6809 28.75C78.5809 28.8167 78.4475 28.9 78.2809 29C78.1475 29.1333 77.9975 29.2167 77.8309 29.25C77.6975 29.2833 77.5309 29.3167 77.3309 29.35C77.1642 29.3833 76.9809 29.4 76.7809 29.4C75.9475 29.4 75.2142 29.25 74.5809 28.95C73.9809 28.6833 73.4975 28.25 73.1309 27.65C72.7642 27.0833 72.4475 26.5 72.1809 25.9C71.9475 25.3333 71.7809 24.6167 71.6809 23.75C71.6142 22.8833 71.5642 22.15 71.5309 21.55C71.4975 20.95 71.4809 20.2167 71.4809 19.35C71.4809 18.4833 71.5309 17.5167 71.6309 16.45C71.7642 15.35 71.8809 14.5167 71.9809 13.95C72.0809 13.35 72.2642 12.3333 72.5309 10.9C72.8309 9.43333 73.0142 8.55 73.0809 8.25C73.1142 8.15 73.1975 7.8 73.3309 7.2C73.4975 6.56667 73.5809 6.06667 73.5809 5.7C73.5809 4.8 73.2642 4.35 72.6309 4.35C70.9642 4.35 68.8975 6.1 66.4309 9.6C66.3309 9.73333 66.1809 9.95 65.9809 10.25C65.1142 11.5167 64.4475 12.5167 63.9809 13.25C63.5142 13.95 63.0142 14.9 62.4809 16.1C61.9475 17.3 61.5809 18.45 61.3809 19.55C61.0809 21.1833 60.3309 22 59.1309 22C58.0309 22 57.0475 20.7 56.1809 18.1C55.3142 15.4667 54.7975 12.9333 54.6309 10.5C54.5975 10.2667 54.5309 9.66667 54.4309 8.7C54.3642 7.7 54.2975 7 54.2309 6.6C54.1975 6.2 54.0975 5.63333 53.9309 4.9C53.7975 4.16667 53.6309 3.51667 53.4309 2.95C53.3975 2.91667 53.3809 2.83333 53.3809 2.7C53.3809 1.9 53.7142 1.5 54.3809 1.5C54.7475 1.5 55.0642 1.58333 55.3309 1.75C57.7642 3.01667 59.0309 4.93333 59.1309 7.5C59.1642 8.66667 59.4975 11.3167 60.1309 15.45C60.1642 15.5833 60.2809 15.7833 60.4809 16.05C61.0142 15.3167 61.5475 14.5167 62.0809 13.65C62.6142 12.7833 63.1975 11.8 63.8309 10.7C64.4975 9.6 64.9975 8.76667 65.3309 8.2C66.1975 6.8 67.3309 5.51667 68.7309 4.35C70.1309 3.18333 71.4309 2.6 72.6309 2.6C75.0642 2.6 76.2809 4.75 76.2809 9.05C76.2809 9.45 76.1975 11.15 76.0309 14.15C75.9642 14.55 75.8309 15.3667 75.6309 16.6C75.4309 17.8333 75.2642 18.9167 75.1309 19.85C75.0309 20.75 74.9809 21.5833 74.9809 22.35C74.9809 25.4833 75.5309 27.05 76.6309 27.05C76.9309 27.05 77.3809 26.8167 77.9809 26.35C78.5809 25.9167 79.0142 25.5 79.2809 25.1C82.2475 20.7 84.5975 17.1 86.3309 14.3ZM86.4262 11.05C86.5262 10.0167 86.6262 9.11667 86.7262 8.35C86.8595 7.55 87.0928 6.58333 87.4262 5.45C87.7928 4.31667 88.2095 3.4 88.6762 2.7C89.1428 1.96667 89.7928 1.35 90.6262 0.849999C91.4595 0.349999 92.4095 0.149999 93.4762 0.249999C96.8428 0.583332 98.6595 3.95 98.9262 10.35C98.9595 11.3833 98.9095 12.4667 98.7762 13.6C98.6428 14.7333 98.3762 15.9 97.9762 17.1C97.6095 18.3 97.0095 19.3167 96.1762 20.15C95.3762 20.9833 94.4095 21.4667 93.2762 21.6C91.7762 21.7333 90.4428 21.1667 89.2762 19.9C88.1095 18.6333 87.2928 17.1667 86.8262 15.5C86.3595 13.8333 86.2262 12.35 86.4262 11.05ZM89.2262 10.15C89.1928 10.45 89.1762 10.6667 89.1762 10.8C89.1762 10.9333 89.1762 11.3333 89.1762 12C89.2095 12.6667 89.2262 13.2167 89.2262 13.65C89.2595 14.05 89.3095 14.6 89.3762 15.3C89.4428 15.9667 89.5428 16.5333 89.6762 17C89.8428 17.4333 90.0262 17.9 90.2262 18.4C90.4595 18.8667 90.7428 19.2333 91.0762 19.5C91.4428 19.7667 91.8595 19.9333 92.3262 20C95.3595 20.4 97.2262 17.4667 97.9262 11.2C97.9595 10.4 97.9262 9.51667 97.8262 8.55C97.7595 7.55 97.5928 6.5 97.3262 5.4C97.0595 4.26667 96.6095 3.35 95.9762 2.65C95.3428 1.91667 94.5762 1.56667 93.6762 1.6C92.9762 1.63333 92.3428 1.86667 91.7762 2.3C91.2428 2.73333 90.8262 3.23333 90.5262 3.8C90.2595 4.36667 90.0262 5.08333 89.8262 5.95C89.6262 6.81667 89.4928 7.55 89.4262 8.15C89.3595 8.71667 89.2928 9.38333 89.2262 10.15Z" fill="#383636"/>
</svg>
