<svg width="30" height="30" viewBox="0 0 30 30" fill="none" xmlns="http://www.w3.org/2000/svg">
<path d="M14.9996 7.19995C6.89481 7.19995 5.81243 7.28123 4.77383 8.31323C3.73523 9.34583 3.59961 10.9866 3.59961 15C3.59961 19.0134 3.73523 20.6541 4.77383 21.6867C5.81243 22.7187 6.89481 22.8 14.9996 22.8C23.1044 22.8 24.1868 22.7187 25.2254 21.6867C26.264 20.6541 26.3996 19.0134 26.3996 15C26.3996 10.9866 26.264 9.34583 25.2254 8.31323C24.1868 7.28123 23.1044 7.19995 14.9996 7.19995ZM14.9996 7.79995C23.3618 7.79995 24.1243 8.01719 24.7309 8.64839C25.3381 9.27959 25.7996 9.71995 25.7996 15C25.7996 20.28 25.3334 20.7297 24.725 21.3351C24.1046 21.9531 23.4986 22.2 14.9996 22.2C6.50061 22.2 5.83863 21.9329 5.23203 21.3011C4.62483 20.6699 4.19961 20.2122 4.19961 15C4.19961 9.78775 4.66116 9.27959 5.26836 8.64839C5.87496 8.01719 7.16961 7.79995 14.9996 7.79995ZM13.0555 11.6484V18.3515L18.8855 14.973L13.0555 11.6484Z" fill="#9C9CA2"/>
</svg>
